<?xml version="1.0" encoding="UTF-8"?><svg xmlns="http://www.w3.org/2000/svg" xmlns:xlink="http://www.w3.org/1999/xlink" fill-opacity="1" color-rendering="auto" color-interpolation="auto" text-rendering="auto" stroke="black" stroke-linecap="square" width="455" stroke-miterlimit="10" shape-rendering="auto" stroke-opacity="1" fill="black" stroke-dasharray="none" font-weight="normal" stroke-width="1" height="963" font-family="'Dialog'" font-style="normal" stroke-linejoin="miter" font-size="12px" stroke-dashoffset="0" image-rendering="auto">
  <!--Generated by ySVG 2.6-->
  <defs id="genericDefs"/>
  <g>
    <defs id="defs1">
      <linearGradient x1="232" gradientUnits="userSpaceOnUse" x2="312" y1="135" y2="175" id="linearGradient1" spreadMethod="reflect">
        <stop stop-opacity="1" stop-color="rgb(232,238,247)" offset="0%"/>
        <stop stop-opacity="1" stop-color="rgb(183,201,227)" offset="100%"/>
      </linearGradient>
      <linearGradient x1="60" gradientUnits="userSpaceOnUse" x2="484" y1="199.4" y2="302.8" id="linearGradient2" spreadMethod="reflect">
        <stop stop-opacity="1" stop-color="rgb(232,238,247)" offset="0%"/>
        <stop stop-opacity="1" stop-color="rgb(183,201,227)" offset="100%"/>
      </linearGradient>
      <linearGradient x1="355.4075" gradientUnits="userSpaceOnUse" x2="434.214" y1="347.325" y2="387.325" id="linearGradient3" spreadMethod="reflect">
        <stop stop-opacity="1" stop-color="rgb(232,238,247)" offset="0%"/>
        <stop stop-opacity="1" stop-color="rgb(183,201,227)" offset="100%"/>
      </linearGradient>
      <linearGradient x1="346.0717" gradientUnits="userSpaceOnUse" x2="443.5497" y1="640.525" y2="680.525" id="linearGradient4" spreadMethod="reflect">
        <stop stop-opacity="1" stop-color="rgb(232,238,247)" offset="0%"/>
        <stop stop-opacity="1" stop-color="rgb(183,201,227)" offset="100%"/>
      </linearGradient>
      <linearGradient x1="317.9467" gradientUnits="userSpaceOnUse" x2="471.6747" y1="417.325" y2="457.325" id="linearGradient5" spreadMethod="reflect">
        <stop stop-opacity="1" stop-color="rgb(232,238,247)" offset="0%"/>
        <stop stop-opacity="1" stop-color="rgb(183,201,227)" offset="100%"/>
      </linearGradient>
      <linearGradient x1="346.0717" gradientUnits="userSpaceOnUse" x2="443.5497" y1="493.925" y2="533.925" id="linearGradient6" spreadMethod="reflect">
        <stop stop-opacity="1" stop-color="rgb(232,238,247)" offset="0%"/>
        <stop stop-opacity="1" stop-color="rgb(183,201,227)" offset="100%"/>
      </linearGradient>
      <linearGradient x1="356.4413" gradientUnits="userSpaceOnUse" x2="433.1802" y1="570.525" y2="610.525" id="linearGradient7" spreadMethod="reflect">
        <stop stop-opacity="1" stop-color="rgb(232,238,247)" offset="0%"/>
        <stop stop-opacity="1" stop-color="rgb(183,201,227)" offset="100%"/>
      </linearGradient>
      <linearGradient x1="118.4295" gradientUnits="userSpaceOnUse" x2="241.236" y1="347.325" y2="387.325" id="linearGradient8" spreadMethod="reflect">
        <stop stop-opacity="1" stop-color="rgb(232,238,247)" offset="0%"/>
        <stop stop-opacity="1" stop-color="rgb(183,201,227)" offset="100%"/>
      </linearGradient>
      <linearGradient x1="102.9688" gradientUnits="userSpaceOnUse" x2="256.6967" y1="640.525" y2="680.525" id="linearGradient9" spreadMethod="reflect">
        <stop stop-opacity="1" stop-color="rgb(232,238,247)" offset="0%"/>
        <stop stop-opacity="1" stop-color="rgb(183,201,227)" offset="100%"/>
      </linearGradient>
      <linearGradient x1="71.6354" gradientUnits="userSpaceOnUse" x2="288.0301" y1="417.325" y2="457.325" id="linearGradient10" spreadMethod="reflect">
        <stop stop-opacity="1" stop-color="rgb(232,238,247)" offset="0%"/>
        <stop stop-opacity="1" stop-color="rgb(183,201,227)" offset="100%"/>
      </linearGradient>
      <linearGradient x1="85.0938" gradientUnits="userSpaceOnUse" x2="274.5717" y1="493.925" y2="533.925" id="linearGradient11" spreadMethod="reflect">
        <stop stop-opacity="1" stop-color="rgb(232,238,247)" offset="0%"/>
        <stop stop-opacity="1" stop-color="rgb(183,201,227)" offset="100%"/>
      </linearGradient>
      <linearGradient x1="80.2633" gradientUnits="userSpaceOnUse" x2="279.4023" y1="570.525" y2="610.525" id="linearGradient12" spreadMethod="reflect">
        <stop stop-opacity="1" stop-color="rgb(232,238,247)" offset="0%"/>
        <stop stop-opacity="1" stop-color="rgb(183,201,227)" offset="100%"/>
      </linearGradient>
      <linearGradient x1="139.8327" gradientUnits="userSpaceOnUse" x2="219.8327" y1="722.4686" y2="762.4686" id="linearGradient13" spreadMethod="reflect">
        <stop stop-opacity="1" stop-color="rgb(232,238,247)" offset="0%"/>
        <stop stop-opacity="1" stop-color="rgb(183,201,227)" offset="100%"/>
      </linearGradient>
      <linearGradient x1="139.8327" gradientUnits="userSpaceOnUse" x2="219.8327" y1="787.981" y2="827.981" id="linearGradient14" spreadMethod="reflect">
        <stop stop-opacity="1" stop-color="rgb(232,238,247)" offset="0%"/>
        <stop stop-opacity="1" stop-color="rgb(183,201,227)" offset="100%"/>
      </linearGradient>
      <linearGradient x1="291.7078" gradientUnits="userSpaceOnUse" x2="436.7078" y1="989.856" y2="1029.8561" id="linearGradient15" spreadMethod="reflect">
        <stop stop-opacity="1" stop-color="rgb(232,238,247)" offset="0%"/>
        <stop stop-opacity="1" stop-color="rgb(183,201,227)" offset="100%"/>
      </linearGradient>
      <linearGradient x1="94.2077" gradientUnits="userSpaceOnUse" x2="265.4578" y1="857.981" y2="951.731" id="linearGradient16" spreadMethod="reflect">
        <stop stop-opacity="1" stop-color="rgb(232,238,247)" offset="0%"/>
        <stop stop-opacity="1" stop-color="rgb(183,201,227)" offset="100%"/>
      </linearGradient>
      <linearGradient x1="98.3327" gradientUnits="userSpaceOnUse" x2="261.3328" y1="989.856" y2="1029.8561" id="linearGradient17" spreadMethod="reflect">
        <stop stop-opacity="1" stop-color="rgb(232,238,247)" offset="0%"/>
        <stop stop-opacity="1" stop-color="rgb(183,201,227)" offset="100%"/>
      </linearGradient>
      <linearGradient x1="324.2078" gradientUnits="userSpaceOnUse" x2="404.2078" y1="924.856" y2="964.856" id="linearGradient18" spreadMethod="reflect">
        <stop stop-opacity="1" stop-color="rgb(232,238,247)" offset="0%"/>
        <stop stop-opacity="1" stop-color="rgb(183,201,227)" offset="100%"/>
      </linearGradient>
      <clipPath clipPathUnits="userSpaceOnUse" id="clipPath1">
        <path d="M0 0 L455 0 L455 963 L0 963 L0 0 Z"/>
      </clipPath>
      <clipPath clipPathUnits="userSpaceOnUse" id="clipPath2">
        <path d="M44 120 L499 120 L499 1083 L44 1083 L44 120 Z"/>
      </clipPath>
    </defs>
    <g fill="white" text-rendering="geometricPrecision" shape-rendering="geometricPrecision" transform="translate(-44,-120)" stroke="white">
      <rect x="44" width="455" height="963" y="120" clip-path="url(#clipPath2)" stroke="none"/>
    </g>
    <g fill="url(#linearGradient1)" text-rendering="geometricPrecision" shape-rendering="geometricPrecision" transform="matrix(1,0,0,1,-44,-120)" stroke="url(#linearGradient1)">
      <ellipse rx="40" ry="20" clip-path="url(#clipPath2)" cx="272" cy="155" stroke="none"/>
    </g>
    <g text-rendering="geometricPrecision" stroke-miterlimit="1.45" shape-rendering="geometricPrecision" transform="matrix(1,0,0,1,-44,-120)" stroke-linecap="butt">
      <ellipse rx="40" fill="none" ry="20" clip-path="url(#clipPath2)" cx="272" cy="155"/>
      <text x="242.6475" xml:space="preserve" y="159.7139" clip-path="url(#clipPath2)" font-family="sans-serif" stroke="none">Application</text>
    </g>
    <g fill="url(#linearGradient2)" text-rendering="geometricPrecision" shape-rendering="geometricPrecision" transform="matrix(1,0,0,1,-44,-120)" stroke="url(#linearGradient2)">
      <path d="M60 199.4 L484 199.4 L484 302.8 L60 302.8 Z" stroke="none" clip-path="url(#clipPath2)"/>
    </g>
    <g text-rendering="geometricPrecision" stroke-miterlimit="1.45" shape-rendering="geometricPrecision" transform="matrix(1,0,0,1,-44,-120)" stroke-linecap="butt">
      <path fill="none" d="M60 199.4 L484 199.4 L484 302.8 L60 302.8 Z" clip-path="url(#clipPath2)"/>
      <text x="79.915" xml:space="preserve" y="226.4115" clip-path="url(#clipPath2)" font-family="sans-serif" stroke="none">Tundlbahn::SpiderCtrl spider = Tundlbahn::SpiderCtrl();</text>
      <text x="79.915" xml:space="preserve" y="241.1127" clip-path="url(#clipPath2)" font-family="sans-serif" stroke="none"> </text>
      <text x="79.915" xml:space="preserve" y="255.8139" clip-path="url(#clipPath2)" font-family="sans-serif" stroke="none">spider.init(-2, -10); // forword -2,-10; backward 2,10; right -10,-2, left 10,2</text>
      <text x="79.915" xml:space="preserve" y="270.515" clip-path="url(#clipPath2)" font-family="sans-serif" stroke="none">spider.doSound(750); // do sound</text>
      <text x="79.915" xml:space="preserve" y="285.2162" clip-path="url(#clipPath2)" font-family="sans-serif" stroke="none">spider.run(1000); // run with low velocity, contains infinite loop</text>
    </g>
    <g fill="url(#linearGradient3)" text-rendering="geometricPrecision" shape-rendering="geometricPrecision" transform="matrix(1,0,0,1,-44,-120)" stroke="url(#linearGradient3)">
      <ellipse rx="39.4033" ry="20" clip-path="url(#clipPath2)" cx="394.8107" cy="367.325" stroke="none"/>
    </g>
    <g text-rendering="geometricPrecision" stroke-miterlimit="1.45" shape-rendering="geometricPrecision" transform="matrix(1,0,0,1,-44,-120)" stroke-linecap="butt">
      <ellipse rx="39.4033" fill="none" ry="20" clip-path="url(#clipPath2)" cx="394.8107" cy="367.325"/>
      <text x="365.136" xml:space="preserve" y="372.0389" clip-path="url(#clipPath2)" font-family="sans-serif" stroke="none">spider.init()</text>
    </g>
    <g fill="url(#linearGradient4)" text-rendering="geometricPrecision" shape-rendering="geometricPrecision" transform="matrix(1,0,0,1,-44,-120)" stroke="url(#linearGradient4)">
      <ellipse rx="48.739" ry="20" clip-path="url(#clipPath2)" cx="394.8107" cy="660.525" stroke="none"/>
    </g>
    <g text-rendering="geometricPrecision" stroke-miterlimit="1.45" shape-rendering="geometricPrecision" transform="matrix(1,0,0,1,-44,-120)" stroke-linecap="butt">
      <ellipse rx="48.739" fill="none" ry="20" clip-path="url(#clipPath2)" cx="394.8107" cy="660.525"/>
      <text x="352.7932" xml:space="preserve" y="665.2389" clip-path="url(#clipPath2)" font-family="sans-serif" stroke="none">End spider.init()</text>
    </g>
    <g fill="url(#linearGradient5)" text-rendering="geometricPrecision" shape-rendering="geometricPrecision" transform="matrix(1,0,0,1,-44,-120)" stroke="url(#linearGradient5)">
      <path d="M317.9467 417.325 L471.6747 417.325 L471.6747 457.325 L317.9467 457.325 Z" stroke="none" clip-path="url(#clipPath2)"/>
    </g>
    <g text-rendering="geometricPrecision" stroke-miterlimit="1.45" shape-rendering="geometricPrecision" transform="matrix(1,0,0,1,-44,-120)" stroke-linecap="butt">
      <path fill="none" d="M317.9467 417.325 L471.6747 417.325 L471.6747 457.325 L317.9467 457.325 Z" clip-path="url(#clipPath2)"/>
      <text x="325.4416" xml:space="preserve" y="442.0389" clip-path="url(#clipPath2)" font-family="sans-serif" stroke="none">initialize calbiration values</text>
    </g>
    <g fill="url(#linearGradient6)" text-rendering="geometricPrecision" shape-rendering="geometricPrecision" transform="matrix(1,0,0,1,-44,-120)" stroke="url(#linearGradient6)">
      <path d="M346.0717 493.925 L443.5497 493.925 L443.5497 533.925 L346.0717 533.925 Z" stroke="none" clip-path="url(#clipPath2)"/>
    </g>
    <g text-rendering="geometricPrecision" stroke-miterlimit="1.45" shape-rendering="geometricPrecision" transform="matrix(1,0,0,1,-44,-120)" stroke-linecap="butt">
      <path fill="none" d="M346.0717 493.925 L443.5497 493.925 L443.5497 533.925 L346.0717 533.925 Z" clip-path="url(#clipPath2)"/>
      <text x="353.7922" xml:space="preserve" y="518.6389" clip-path="url(#clipPath2)" font-family="sans-serif" stroke="none">initialize buzzer</text>
    </g>
    <g fill="url(#linearGradient7)" text-rendering="geometricPrecision" shape-rendering="geometricPrecision" transform="matrix(1,0,0,1,-44,-120)" stroke="url(#linearGradient7)">
      <path d="M356.4413 570.525 L433.1802 570.525 L433.1802 610.525 L356.4413 610.525 Z" stroke="none" clip-path="url(#clipPath2)"/>
    </g>
    <g text-rendering="geometricPrecision" stroke-miterlimit="1.45" shape-rendering="geometricPrecision" transform="matrix(1,0,0,1,-44,-120)" stroke-linecap="butt">
      <path fill="none" d="M356.4413 570.525 L433.1802 570.525 L433.1802 610.525 L356.4413 610.525 Z" clip-path="url(#clipPath2)"/>
      <text x="363.7971" xml:space="preserve" y="595.2389" clip-path="url(#clipPath2)" font-family="sans-serif" stroke="none">raise spider</text>
    </g>
    <g fill="url(#linearGradient8)" text-rendering="geometricPrecision" shape-rendering="geometricPrecision" transform="matrix(1,0,0,1,-44,-120)" stroke="url(#linearGradient8)">
      <ellipse rx="61.4033" ry="20" clip-path="url(#clipPath2)" cx="179.8327" cy="367.325" stroke="none"/>
    </g>
    <g text-rendering="geometricPrecision" stroke-miterlimit="1.45" shape-rendering="geometricPrecision" transform="matrix(1,0,0,1,-44,-120)" stroke-linecap="butt">
      <ellipse rx="61.4033" fill="none" ry="20" clip-path="url(#clipPath2)" cx="179.8327" cy="367.325"/>
      <text x="125.8152" xml:space="preserve" y="372.0389" clip-path="url(#clipPath2)" font-family="sans-serif" stroke="none">Spider() Constructor</text>
    </g>
    <g fill="url(#linearGradient9)" text-rendering="geometricPrecision" shape-rendering="geometricPrecision" transform="matrix(1,0,0,1,-44,-120)" stroke="url(#linearGradient9)">
      <ellipse rx="76.864" ry="20" clip-path="url(#clipPath2)" cx="179.8327" cy="660.525" stroke="none"/>
    </g>
    <g text-rendering="geometricPrecision" stroke-miterlimit="1.45" shape-rendering="geometricPrecision" transform="matrix(1,0,0,1,-44,-120)" stroke-linecap="butt">
      <ellipse rx="76.864" fill="none" ry="20" clip-path="url(#clipPath2)" cx="179.8327" cy="660.525"/>
      <text x="113.4724" xml:space="preserve" y="665.2389" clip-path="url(#clipPath2)" font-family="sans-serif" stroke="none">End Spider() Constructor</text>
    </g>
    <g fill="url(#linearGradient10)" text-rendering="geometricPrecision" shape-rendering="geometricPrecision" transform="matrix(1,0,0,1,-44,-120)" stroke="url(#linearGradient10)">
      <path d="M71.6354 417.325 L288.0301 417.325 L288.0301 457.325 L71.6354 457.325 Z" stroke="none" clip-path="url(#clipPath2)"/>
    </g>
    <g text-rendering="geometricPrecision" stroke-miterlimit="1.45" shape-rendering="geometricPrecision" transform="matrix(1,0,0,1,-44,-120)" stroke-linecap="butt">
      <path fill="none" d="M71.6354 417.325 L288.0301 417.325 L288.0301 457.325 L71.6354 457.325 Z" clip-path="url(#clipPath2)"/>
      <text x="79.4411" xml:space="preserve" y="442.0389" clip-path="url(#clipPath2)" font-family="sans-serif" stroke="none">instantiate and store SpiderLib-Object</text>
    </g>
    <g fill="url(#linearGradient11)" text-rendering="geometricPrecision" shape-rendering="geometricPrecision" transform="matrix(1,0,0,1,-44,-120)" stroke="url(#linearGradient11)">
      <path d="M85.0938 493.925 L274.5717 493.925 L274.5717 533.925 L85.0938 533.925 Z" stroke="none" clip-path="url(#clipPath2)"/>
    </g>
    <g text-rendering="geometricPrecision" stroke-miterlimit="1.45" shape-rendering="geometricPrecision" transform="matrix(1,0,0,1,-44,-120)" stroke-linecap="butt">
      <path fill="none" d="M85.0938 493.925 L274.5717 493.925 L274.5717 533.925 L85.0938 533.925 Z" clip-path="url(#clipPath2)"/>
      <text x="88.7868" xml:space="preserve" y="511.2883" clip-path="url(#clipPath2)" font-family="sans-serif" stroke="none">call the Init() function of the Object</text>
      <text x="106.4675" xml:space="preserve" y="525.9894" clip-path="url(#clipPath2)" font-family="sans-serif" stroke="none">which initializes e.g. Servos</text>
    </g>
    <g fill="url(#linearGradient12)" text-rendering="geometricPrecision" shape-rendering="geometricPrecision" transform="matrix(1,0,0,1,-44,-120)" stroke="url(#linearGradient12)">
      <path d="M80.2633 570.525 L279.4023 570.525 L279.4023 610.525 L80.2633 610.525 Z" stroke="none" clip-path="url(#clipPath2)"/>
    </g>
    <g text-rendering="geometricPrecision" stroke-miterlimit="1.45" shape-rendering="geometricPrecision" transform="matrix(1,0,0,1,-44,-120)" stroke-linecap="butt">
      <path fill="none" d="M80.2633 570.525 L279.4023 570.525 L279.4023 610.525 L80.2633 610.525 Z" clip-path="url(#clipPath2)"/>
      <text x="83.7859" xml:space="preserve" y="595.2389" clip-path="url(#clipPath2)" font-family="sans-serif" stroke="none">initialize UltraSound/Distancesensor</text>
    </g>
    <g fill="url(#linearGradient13)" text-rendering="geometricPrecision" shape-rendering="geometricPrecision" transform="matrix(1,0,0,1,-44,-120)" stroke="url(#linearGradient13)">
      <ellipse rx="40" ry="20" clip-path="url(#clipPath2)" cx="179.8327" cy="742.4685" stroke="none"/>
    </g>
    <g text-rendering="geometricPrecision" stroke-miterlimit="1.45" shape-rendering="geometricPrecision" transform="matrix(1,0,0,1,-44,-120)" stroke-linecap="butt">
      <ellipse rx="40" fill="none" ry="20" clip-path="url(#clipPath2)" cx="179.8327" cy="742.4685"/>
      <text x="149.156" xml:space="preserve" y="747.1824" clip-path="url(#clipPath2)" font-family="sans-serif" stroke="none">spider.run()</text>
    </g>
    <g fill="url(#linearGradient14)" text-rendering="geometricPrecision" shape-rendering="geometricPrecision" transform="matrix(1,0,0,1,-44,-120)" stroke="url(#linearGradient14)">
      <path d="M139.8327 787.981 L219.8327 787.981 L219.8327 827.981 L139.8327 827.981 Z" stroke="none" clip-path="url(#clipPath2)"/>
    </g>
    <g text-rendering="geometricPrecision" stroke-miterlimit="1.45" shape-rendering="geometricPrecision" transform="matrix(1,0,0,1,-44,-120)" stroke-linecap="butt">
      <path fill="none" d="M139.8327 787.981 L219.8327 787.981 L219.8327 827.981 L139.8327 827.981 Z" clip-path="url(#clipPath2)"/>
      <text x="151.8249" xml:space="preserve" y="812.6949" clip-path="url(#clipPath2)" font-family="sans-serif" stroke="none">while(true)</text>
    </g>
    <g fill="url(#linearGradient15)" text-rendering="geometricPrecision" shape-rendering="geometricPrecision" transform="matrix(1,0,0,1,-44,-120)" stroke="url(#linearGradient15)">
      <path d="M291.7078 989.856 L436.7078 989.856 L436.7078 1029.8561 L291.7078 1029.8561 Z" stroke="none" clip-path="url(#clipPath2)"/>
    </g>
    <g text-rendering="geometricPrecision" stroke-miterlimit="1.45" shape-rendering="geometricPrecision" transform="matrix(1,0,0,1,-44,-120)" stroke-linecap="butt">
      <path fill="none" d="M291.7078 989.856 L436.7078 989.856 L436.7078 1029.8561 L291.7078 1029.8561 Z" clip-path="url(#clipPath2)"/>
      <text x="296.8513" xml:space="preserve" y="1014.5699" clip-path="url(#clipPath2)" font-family="sans-serif" stroke="none">spider.run() 8 cycles right</text>
    </g>
    <g fill="url(#linearGradient16)" text-rendering="geometricPrecision" shape-rendering="geometricPrecision" transform="matrix(1,0,0,1,-44,-120)" stroke="url(#linearGradient16)">
      <path d="M179.8327 857.981 L265.4578 904.856 L179.8327 951.731 L94.2077 904.856 Z" stroke="none" clip-path="url(#clipPath2)"/>
    </g>
    <g text-rendering="geometricPrecision" stroke-miterlimit="1.45" shape-rendering="geometricPrecision" transform="matrix(1,0,0,1,-44,-120)" stroke-linecap="butt">
      <path fill="none" d="M179.8327 857.981 L265.4578 904.856 L179.8327 951.731 L94.2077 904.856 Z" clip-path="url(#clipPath2)"/>
      <text x="136.1482" xml:space="preserve" y="902.2193" clip-path="url(#clipPath2)" font-family="sans-serif" stroke="none">4x getDistance()</text>
      <text x="125.2995" xml:space="preserve" y="916.9205" clip-path="url(#clipPath2)" font-family="sans-serif" stroke="none">and if(distance &lt; 40)</text>
    </g>
    <g fill="url(#linearGradient17)" text-rendering="geometricPrecision" shape-rendering="geometricPrecision" transform="matrix(1,0,0,1,-44,-120)" stroke="url(#linearGradient17)">
      <path d="M98.3327 989.856 L261.3328 989.856 L261.3328 1029.8561 L98.3327 1029.8561 Z" stroke="none" clip-path="url(#clipPath2)"/>
    </g>
    <g text-rendering="geometricPrecision" stroke-miterlimit="1.45" shape-rendering="geometricPrecision" transform="matrix(1,0,0,1,-44,-120)" stroke-linecap="butt">
      <path fill="none" d="M98.3327 989.856 L261.3328 989.856 L261.3328 1029.8561 L98.3327 1029.8561 Z" clip-path="url(#clipPath2)"/>
      <text x="104.1413" xml:space="preserve" y="1014.5699" clip-path="url(#clipPath2)" font-family="sans-serif" stroke="none">spider.run() 1x cycle forward</text>
    </g>
    <g fill="url(#linearGradient18)" text-rendering="geometricPrecision" shape-rendering="geometricPrecision" transform="matrix(1,0,0,1,-44,-120)" stroke="url(#linearGradient18)">
      <path d="M324.2078 924.856 L404.2078 924.856 L404.2078 964.856 L324.2078 964.856 Z" stroke="none" clip-path="url(#clipPath2)"/>
    </g>
    <g text-rendering="geometricPrecision" stroke-miterlimit="1.45" shape-rendering="geometricPrecision" transform="matrix(1,0,0,1,-44,-120)" stroke-linecap="butt">
      <path fill="none" d="M324.2078 924.856 L404.2078 924.856 L404.2078 964.856 L324.2078 964.856 Z" clip-path="url(#clipPath2)"/>
      <text x="336.1882" xml:space="preserve" y="949.5699" clip-path="url(#clipPath2)" font-family="sans-serif" stroke="none">doSound()</text>
    </g>
    <g text-rendering="geometricPrecision" stroke-miterlimit="1.45" shape-rendering="geometricPrecision" transform="matrix(1,0,0,1,-44,-120)" stroke-linecap="butt">
      <path fill="none" d="M272 175.0365 L272 191.3634" clip-path="url(#clipPath2)"/>
    </g>
    <g text-rendering="geometricPrecision" stroke-miterlimit="1.45" shape-rendering="geometricPrecision" transform="matrix(1,0,0,1,-44,-120)" stroke-linecap="butt">
      <path d="M272 199.3634 L277 187.3634 L272 190.3634 L267 187.3634 Z" stroke="none" clip-path="url(#clipPath2)"/>
      <path fill="none" d="M394.8108 387.3201 L394.8108 409.3524" clip-path="url(#clipPath2)"/>
      <path d="M394.8108 417.3524 L399.8108 405.3524 L394.8108 408.3524 L389.8108 405.3524 Z" clip-path="url(#clipPath2)" stroke="none"/>
      <path fill="none" d="M394.8108 457.3353 L394.8108 485.9473" clip-path="url(#clipPath2)"/>
      <path d="M394.8108 493.9473 L399.8108 481.9473 L394.8108 484.9473 L389.8108 481.9473 Z" clip-path="url(#clipPath2)" stroke="none"/>
      <path fill="none" d="M394.8108 533.9352 L394.8108 562.5473" clip-path="url(#clipPath2)"/>
      <path d="M394.8108 570.5473 L399.8108 558.5473 L394.8108 561.5473 L389.8108 558.5473 Z" clip-path="url(#clipPath2)" stroke="none"/>
      <path fill="none" d="M394.8108 610.5201 L394.8108 632.5524" clip-path="url(#clipPath2)"/>
      <path d="M394.8108 640.5524 L399.8108 628.5524 L394.8108 631.5524 L389.8108 628.5524 Z" clip-path="url(#clipPath2)" stroke="none"/>
      <path fill="none" d="M179.8327 387.3201 L179.8327 409.3524" clip-path="url(#clipPath2)"/>
      <path d="M179.8327 417.3524 L184.8327 405.3524 L179.8327 408.3524 L174.8327 405.3524 Z" clip-path="url(#clipPath2)" stroke="none"/>
      <path fill="none" d="M179.8327 457.3353 L179.8327 485.9473" clip-path="url(#clipPath2)"/>
      <path d="M179.8327 493.9473 L184.8327 481.9473 L179.8327 484.9473 L174.8327 481.9473 Z" clip-path="url(#clipPath2)" stroke="none"/>
      <path fill="none" d="M179.8327 533.9352 L179.8327 562.5473" clip-path="url(#clipPath2)"/>
      <path d="M179.8327 570.5473 L184.8327 558.5473 L179.8327 561.5473 L174.8327 558.5473 Z" clip-path="url(#clipPath2)" stroke="none"/>
      <path fill="none" d="M179.8327 610.5201 L179.8327 632.5524" clip-path="url(#clipPath2)"/>
      <path d="M179.8327 640.5524 L184.8327 628.5524 L179.8327 631.5524 L174.8327 628.5524 Z" clip-path="url(#clipPath2)" stroke="none"/>
      <path fill="none" d="M179.8327 762.4614 L179.8327 780.0217" clip-path="url(#clipPath2)"/>
      <path d="M179.8327 788.0217 L184.8327 776.0217 L179.8327 779.0217 L174.8327 776.0217 Z" clip-path="url(#clipPath2)" stroke="none"/>
      <path fill="none" d="M364.2078 1029.8494 L364.2078 1067.936 L468.3764 1067.936 L468.3764 842.304 L468.3764 809.664 L227.848 809.664" clip-path="url(#clipPath2)"/>
      <path d="M219.848 809.664 L231.848 814.664 L228.848 809.664 L231.848 804.664 Z" clip-path="url(#clipPath2)" stroke="none"/>
      <path fill="none" d="M179.8327 827.9899 L179.8327 849.9782" clip-path="url(#clipPath2)"/>
      <path d="M179.8327 857.9782 L184.8327 845.9782 L179.8327 848.9782 L174.8327 845.9782 Z" clip-path="url(#clipPath2)" stroke="none"/>
      <path fill="none" d="M179.8327 951.742 L179.8327 981.851" clip-path="url(#clipPath2)"/>
      <path d="M179.8327 989.851 L184.8327 977.851 L179.8327 980.851 L174.8327 977.851 Z" clip-path="url(#clipPath2)" stroke="none"/>
      <text x="125.1443" xml:space="preserve" y="970.7955" clip-path="url(#clipPath2)" font-family="sans-serif" stroke="none">above 40</text>
      <path fill="none" d="M179.8327 1029.8357 L179.8327 1067.5688 L468.2555 1067.936 L468.2555 841.8688 L468.2555 809.664 L227.8614 809.664" clip-path="url(#clipPath2)"/>
      <path d="M219.8614 809.664 L231.8614 814.664 L228.8614 809.664 L231.8614 804.664 Z" clip-path="url(#clipPath2)" stroke="none"/>
      <path fill="none" d="M265.4933 904.856 L364.2078 904.856 L364.2078 916.817" clip-path="url(#clipPath2)"/>
      <path d="M364.2078 924.817 L369.2078 912.817 L364.2078 915.817 L359.2078 912.817 Z" clip-path="url(#clipPath2)" stroke="none"/>
      <text x="301.2237" xml:space="preserve" y="900.2441" clip-path="url(#clipPath2)" font-family="sans-serif" stroke="none">below 40</text>
      <path fill="none" d="M364.2078 964.8829 L364.2078 981.8729" clip-path="url(#clipPath2)"/>
      <path d="M364.2078 989.8729 L369.2078 977.8729 L364.2078 980.8729 L359.2078 977.8729 Z" clip-path="url(#clipPath2)" stroke="none"/>
    </g>
  </g>
</svg>
