<?xml version="1.0" encoding="utf-8"?>
<!-- Created with "sPlan" (http://www.abacom-online.de) -->
<svg version="1.1" baseProfile="full"
xmlns="http://www.w3.org/2000/svg"
width="84mm" height="55mm"
viewBox="0 0 842 557">
<title>Spider</title>
<defs>
<style type="text/css">
<![CDATA[
polyline {stroke-linecap:round; stroke-linejoin:round}
polygon {stroke-linecap:round; stroke-linejoin:round}
path {stroke-linecap:round; stroke-linejoin:round}
circle {stroke-linecap:round; stroke-linejoin:round}
]]>
</style>
</defs>
<path fill="none" stroke="rgb(0,0,0)" stroke-width="4" stroke-dasharray="8,16" d=" M 476 66 L 335 66 335 128 476 128 476 66 Z" />
<path fill="rgb(0,0,0)" stroke="rgb(0,0,0)" stroke-width="0" d=" M 344.28 43.40 L 345.98 43.40 345.98 51.25 345.96 52.03 345.90 52.75 345.81 53.40 345.68 53.98 345.51 54.50 345.30 54.96 345.02 55.39 344.69 55.78 344.30 56.14 343.85 56.46 343.34 56.73 342.76 56.94 342.13 57.09 341.44 57.18 340.69 57.21 339.96 57.19 339.28 57.11 338.66 56.98 338.10 56.79 337.59 56.56 337.13 56.27 336.73 55.93 336.39 55.55 336.10 55.13 335.86 54.65 335.68 54.12 335.53 53.51 335.43 52.83 335.37 52.07 335.35 51.25 335.36 43.40 337.06 43.40 337.05 51.19 337.06 51.85 337.10 52.45 337.17 52.96 337.26 53.41 337.38 53.78 337.54 54.10 337.73 54.38 337.96 54.64 338.23 54.87 338.54 55.06 338.88 55.22 339.25 55.35 339.65 55.44 340.07 55.49 340.53 55.51 341.29 55.48 341.96 55.37 342.54 55.19 343.02 54.94 343.41 54.62 343.72 54.20 343.96 53.64 344.14 52.95 344.24 52.14 344.28 51.19 Z M 348.73 57.00 L 348.75 43.40 350.45 43.40 350.43 57.00 Z M 356.60 55.58 L 356.81 57.05 356.53 57.11 356.26 57.15 356.01 57.19 355.77 57.21 355.54 57.21 355.19 57.20 354.87 57.17 354.58 57.11 354.33 57.03 354.11 56.93 353.92 56.81 353.76 56.68 353.61 56.53 353.50 56.37 353.40 56.19 353.33 55.97 353.27 55.66 353.23 55.28 353.21 54.81 353.20 54.26 353.21 48.71 351.93 48.71 351.93 47.01 353.21 47.01 353.21 44.59 354.91 43.59 354.91 47.01 356.61 47.01 356.61 48.71 354.91 48.71 354.90 54.21 354.90 54.46 354.91 54.68 354.93 54.85 354.96 54.99 354.99 55.09 355.03 55.16 355.08 55.23 355.14 55.29 355.20 55.35 355.28 55.40 355.36 55.44 355.47 55.47 355.58 55.49 355.71 55.51 355.86 55.51 355.97 55.52 356.11 55.52 356.26 55.54 356.42 55.56 356.60 55.58 Z M 358.30 57.00 L 358.31 47.01 359.79 47.01 359.79 48.49 360.02 48.11 360.24 47.78 360.45 47.50 360.65 47.29 360.85 47.13 361.05 47.01 361.25 46.92 361.46 46.85 361.68 46.81 361.91 46.80 362.25 46.82 362.59 46.88 362.93 46.99 363.27 47.14 363.62 47.32 363.05 48.85 362.81 48.72 362.57 48.63 362.33 48.56 362.09 48.51 361.86 48.50 361.65 48.51 361.44 48.55 361.25 48.62 361.07 48.71 360.89 48.84 360.73 48.98 360.59 49.15 360.47 49.33 360.36 49.54 360.28 49.77 360.18 50.13 360.10 50.52 360.05 50.91 360.01 51.33 360.00 51.75 360.00 57.00 Z M 371.05 55.72 L 370.72 56.03 370.40 56.30 370.07 56.53 369.73 56.72 369.40 56.88 369.05 57.00 368.70 57.09 368.33 57.16 367.96 57.20 367.58 57.21 366.96 57.18 366.41 57.08 365.92 56.92 365.48 56.70 365.11 56.41 364.80 56.06 364.56 55.69 364.38 55.28 364.28 54.83 364.25 54.34 364.26 54.05 364.30 53.77 364.37 53.51 364.46 53.25 364.57 53.00 364.71 52.77 364.87 52.55 365.04 52.36 365.23 52.18 365.43 52.02 365.65 51.88 365.88 51.76 366.12 51.65 366.36 51.55 366.62 51.47 366.84 51.41 367.09 51.36 367.39 51.31 367.72 51.26 368.09 51.21 368.85 51.11 369.53 51.00 370.12 50.88 370.62 50.76 371.04 50.62 371.05 50.51 371.05 50.42 371.05 50.35 371.05 50.29 371.05 50.25 371.03 49.91 370.98 49.62 370.89 49.37 370.75 49.16 370.59 48.99 370.31 48.81 369.98 48.68 369.61 48.58 369.18 48.52 368.71 48.50 368.27 48.51 367.87 48.55 367.53 48.62 367.23 48.71 366.99 48.83 366.78 48.98 366.59 49.17 366.42 49.40 366.28 49.67 366.16 49.99 364.46 49.78 364.57 49.38 364.69 49.02 364.84 48.68 365.01 48.38 365.20 48.11 365.43 47.87 365.69 47.66 365.98 47.46 366.32 47.29 366.68 47.14 367.08 47.02 367.51 46.92 367.96 46.85 368.43 46.81 368.93 46.80 369.42 46.81 369.87 46.85 370.28 46.91 370.65 46.99 370.99 47.10 371.29 47.23 371.55 47.37 371.79 47.52 371.99 47.68 372.15 47.86 372.29 48.05 372.41 48.26 372.52 48.50 372.60 48.75 372.67 49.01 372.70 49.21 372.72 49.46 372.74 49.76 372.75 50.10 372.75 50.50 372.75 52.62 372.75 53.44 372.76 54.15 372.78 54.74 372.80 55.21 372.83 55.57 372.87 55.87 372.93 56.16 373.00 56.44 373.08 56.72 373.17 57.00 371.47 57.00 371.35 56.77 371.24 56.53 371.16 56.28 371.09 56.01 371.05 55.72 Z M 371.05 52.33 L 370.65 52.44 370.17 52.56 369.62 52.66 369.00 52.76 368.31 52.85 367.92 52.90 367.58 52.95 367.28 53.00 367.04 53.06 366.84 53.12 366.68 53.19 366.53 53.27 366.40 53.36 366.28 53.46 366.18 53.57 366.10 53.69 366.03 53.82 365.99 53.95 365.96 54.08 365.95 54.22 365.97 54.44 366.03 54.64 366.13 54.82 366.27 54.99 366.45 55.14 366.67 55.28 366.93 55.38 367.23 55.45 367.57 55.50 367.94 55.51 368.32 55.50 368.68 55.45 369.02 55.37 369.35 55.25 369.66 55.11 369.95 54.94 370.20 54.75 370.42 54.56 370.61 54.35 370.77 54.12 370.87 53.93 370.94 53.70 371.00 53.43 371.03 53.14 371.04 52.81 Z M 374.45 54.03 L 376.15 53.81 376.23 54.13 376.34 54.41 376.50 54.66 376.70 54.88 376.93 55.07 377.21 55.23 377.53 55.35 377.89 55.44 378.29 55.49 378.74 55.51 379.18 55.50 379.57 55.45 379.92 55.37 380.22 55.26 380.47 55.11 380.67 54.94 380.83 54.77 380.95 54.58 381.01 54.38 381.04 54.17 381.01 53.98 380.95 53.81 380.83 53.66 380.67 53.52 380.47 53.40 380.27 53.32 380.00 53.24 379.65 53.14 379.22 53.03 378.72 52.92 378.03 52.73 377.43 52.56 376.92 52.39 376.50 52.23 376.16 52.09 375.88 51.94 375.63 51.76 375.41 51.57 375.21 51.35 375.05 51.12 374.91 50.86 374.80 50.60 374.73 50.32 374.68 50.04 374.66 49.75 374.68 49.48 374.72 49.21 374.78 48.96 374.86 48.72 374.97 48.48 375.10 48.25 375.25 48.04 375.42 47.85 375.60 47.67 375.81 47.51 375.98 47.40 376.17 47.29 376.39 47.19 376.63 47.09 376.89 47.01 377.16 46.93 377.45 46.87 377.74 46.83 378.04 46.81 378.35 46.80 378.81 46.81 379.25 46.85 379.66 46.92 380.05 47.01 380.42 47.13 380.76 47.28 381.06 47.44 381.32 47.62 381.55 47.82 381.73 48.04 381.89 48.28 382.03 48.55 382.15 48.86 382.24 49.20 382.31 49.56 380.61 49.78 380.55 49.55 380.46 49.34 380.33 49.15 380.17 48.98 379.98 48.84 379.75 48.72 379.48 48.62 379.19 48.55 378.85 48.51 378.48 48.50 378.05 48.51 377.68 48.55 377.35 48.62 377.08 48.71 376.85 48.82 376.68 48.96 376.54 49.10 376.44 49.25 376.38 49.41 376.36 49.57 376.37 49.68 376.40 49.78 376.44 49.88 376.49 49.98 376.57 50.07 376.66 50.16 376.77 50.24 376.89 50.31 377.04 50.38 377.20 50.44 377.34 50.48 377.56 50.54 377.85 50.61 378.22 50.70 378.67 50.80 379.33 50.99 379.91 51.17 380.41 51.33 380.82 51.47 381.16 51.60 381.44 51.74 381.70 51.90 381.93 52.08 382.14 52.28 382.32 52.51 382.47 52.76 382.59 53.03 382.67 53.33 382.72 53.65 382.74 53.99 382.72 54.33 382.66 54.66 382.56 54.99 382.42 55.31 382.24 55.62 382.03 55.91 381.78 56.17 381.49 56.41 381.17 56.62 380.82 56.80 380.44 56.95 380.03 57.06 379.61 57.15 379.17 57.20 378.71 57.21 377.97 57.18 377.30 57.08 376.71 56.92 376.19 56.70 375.75 56.41 375.37 56.06 375.05 55.64 374.79 55.17 374.59 54.63 374.45 54.03 Z M 391.02 53.39 L 392.72 53.60 392.58 54.25 392.38 54.84 392.10 55.37 391.76 55.84 391.36 56.25 390.90 56.60 390.40 56.87 389.86 57.06 389.28 57.17 388.66 57.21 387.89 57.16 387.18 57.00 386.54 56.73 385.96 56.36 385.44 55.88 385.00 55.30 384.66 54.62 384.42 53.85 384.27 53.00 384.23 52.04 384.25 51.41 384.31 50.82 384.42 50.25 384.56 49.72 384.75 49.22 384.98 48.76 385.25 48.35 385.57 47.98 385.93 47.67 386.33 47.40 386.77 47.19 387.22 47.02 387.68 46.90 388.15 46.82 388.65 46.80 389.26 46.83 389.82 46.93 390.34 47.10 390.81 47.33 391.23 47.63 391.60 47.99 391.92 48.41 392.18 48.88 392.37 49.40 392.51 49.99 390.81 50.20 390.71 49.88 390.58 49.59 390.42 49.34 390.24 49.11 390.03 48.93 389.79 48.77 389.54 48.65 389.26 48.57 388.97 48.52 388.66 48.50 388.19 48.53 387.76 48.63 387.37 48.80 387.01 49.04 386.69 49.34 386.41 49.72 386.20 50.17 386.05 50.70 385.96 51.31 385.93 52.00 385.96 52.69 386.04 53.31 386.19 53.85 386.40 54.30 386.66 54.68 386.98 54.98 387.33 55.21 387.72 55.38 388.14 55.48 388.60 55.51 388.97 55.49 389.32 55.43 389.64 55.32 389.94 55.18 390.21 54.99 390.45 54.76 390.65 54.48 390.81 54.16 390.94 53.80 391.02 53.39 Z M 394.21 57.00 L 394.22 43.40 395.92 43.40 395.92 48.40 396.41 47.82 396.95 47.38 397.55 47.06 398.19 46.86 398.88 46.80 399.30 46.82 399.71 46.87 400.09 46.96 400.45 47.08 400.79 47.24 401.09 47.42 401.36 47.64 401.59 47.88 401.79 48.15 401.94 48.44 402.07 48.78 402.17 49.17 402.23 49.62 402.28 50.12 402.29 50.68 402.28 57.00 400.58 57.00 400.59 50.85 400.57 50.39 400.50 49.98 400.40 49.62 400.24 49.31 400.05 49.06 399.82 48.86 399.55 48.70 399.24 48.59 398.90 48.52 398.52 48.50 398.23 48.52 397.94 48.56 397.66 48.64 397.39 48.74 397.12 48.88 396.88 49.04 396.66 49.22 396.47 49.43 396.32 49.66 396.19 49.90 396.09 50.18 396.01 50.50 395.96 50.86 395.93 51.26 395.91 51.69 395.91 57.00 Z M 411.00 55.72 L 410.67 56.03 410.35 56.30 410.02 56.53 409.68 56.72 409.35 56.88 409.00 57.00 408.65 57.09 408.28 57.16 407.91 57.20 407.53 57.21 406.91 57.18 406.36 57.08 405.87 56.92 405.43 56.70 405.06 56.41 404.75 56.06 404.51 55.69 404.33 55.28 404.23 54.83 404.20 54.34 404.21 54.05 404.25 53.77 404.32 53.51 404.41 53.25 404.52 53.00 404.66 52.77 404.82 52.55 404.99 52.36 405.18 52.18 405.38 52.02 405.60 51.88 405.83 51.76 406.07 51.65 406.31 51.55 406.57 51.47 406.79 51.41 407.04 51.36 407.34 51.31 407.67 51.26 408.04 51.21 408.80 51.11 409.48 51.00 410.07 50.88 410.57 50.76 410.99 50.62 411.00 50.51 411.00 50.42 411.00 50.35 411.00 50.29 411.00 50.25 410.98 49.91 410.93 49.62 410.84 49.37 410.70 49.16 410.54 48.99 410.26 48.81 409.93 48.68 409.56 48.58 409.13 48.52 408.66 48.50 408.22 48.51 407.82 48.55 407.48 48.62 407.18 48.71 406.94 48.83 406.73 48.98 406.54 49.17 406.37 49.40 406.23 49.67 406.11 49.99 404.41 49.78 404.52 49.38 404.64 49.02 404.79 48.68 404.96 48.38 405.15 48.11 405.38 47.87 405.64 47.66 405.93 47.46 406.27 47.29 406.63 47.14 407.03 47.02 407.46 46.92 407.91 46.85 408.38 46.81 408.88 46.80 409.37 46.81 409.82 46.85 410.23 46.91 410.60 46.99 410.94 47.10 411.24 47.23 411.50 47.37 411.74 47.52 411.94 47.68 412.10 47.86 412.24 48.05 412.36 48.26 412.47 48.50 412.55 48.75 412.62 49.01 412.65 49.21 412.67 49.46 412.69 49.76 412.70 50.10 412.70 50.50 412.70 52.62 412.70 53.44 412.71 54.15 412.73 54.74 412.75 55.21 412.78 55.57 412.82 55.87 412.88 56.16 412.95 56.44 413.03 56.72 413.12 57.00 411.42 57.00 411.30 56.77 411.19 56.53 411.11 56.28 411.04 56.01 411.00 55.72 Z M 411.00 52.33 L 410.60 52.44 410.12 52.56 409.57 52.66 408.95 52.76 408.26 52.85 407.87 52.90 407.53 52.95 407.23 53.00 406.99 53.06 406.79 53.12 406.63 53.19 406.48 53.27 406.35 53.36 406.23 53.46 406.13 53.57 406.05 53.69 405.98 53.82 405.94 53.95 405.91 54.08 405.90 54.22 405.92 54.44 405.98 54.64 406.08 54.82 406.22 54.99 406.40 55.14 406.62 55.28 406.88 55.38 407.18 55.45 407.52 55.50 407.89 55.51 408.27 55.50 408.63 55.45 408.97 55.37 409.30 55.25 409.61 55.11 409.90 54.94 410.15 54.75 410.37 54.56 410.56 54.35 410.72 54.12 410.82 53.93 410.89 53.70 410.95 53.43 410.98 53.14 410.99 52.81 Z M 415.03 57.00 L 415.05 43.40 416.75 43.40 416.73 57.00 Z M 419.28 57.00 L 419.30 43.40 421.00 43.40 420.98 57.00 Z M 422.90 54.03 L 424.60 53.81 424.68 54.13 424.79 54.41 424.95 54.66 425.15 54.88 425.38 55.07 425.66 55.23 425.98 55.35 426.34 55.44 426.74 55.49 427.19 55.51 427.63 55.50 428.02 55.45 428.37 55.37 428.67 55.26 428.92 55.11 429.12 54.94 429.28 54.77 429.40 54.58 429.46 54.38 429.49 54.17 429.46 53.98 429.40 53.81 429.28 53.66 429.12 53.52 428.92 53.40 428.72 53.32 428.45 53.24 428.10 53.14 427.67 53.03 427.17 52.92 426.48 52.73 425.88 52.56 425.37 52.39 424.95 52.23 424.61 52.09 424.33 51.94 424.08 51.76 423.86 51.57 423.66 51.35 423.50 51.12 423.36 50.86 423.25 50.60 423.18 50.32 423.13 50.04 423.11 49.75 423.13 49.48 423.17 49.21 423.23 48.96 423.31 48.72 423.42 48.48 423.55 48.25 423.70 48.04 423.87 47.85 424.05 47.67 424.26 47.51 424.43 47.40 424.62 47.29 424.84 47.19 425.08 47.09 425.34 47.01 425.61 46.93 425.90 46.87 426.19 46.83 426.49 46.81 426.80 46.80 427.26 46.81 427.70 46.85 428.11 46.92 428.50 47.01 428.87 47.13 429.21 47.28 429.51 47.44 429.77 47.62 430.00 47.82 430.18 48.04 430.34 48.28 430.48 48.55 430.60 48.86 430.69 49.20 430.76 49.56 429.06 49.78 429.00 49.55 428.91 49.34 428.78 49.15 428.62 48.98 428.43 48.84 428.20 48.72 427.93 48.62 427.64 48.55 427.30 48.51 426.93 48.50 426.50 48.51 426.13 48.55 425.80 48.62 425.53 48.71 425.30 48.82 425.13 48.96 424.99 49.10 424.89 49.25 424.83 49.41 424.81 49.57 424.82 49.68 424.85 49.78 424.89 49.88 424.94 49.98 425.02 50.07 425.11 50.16 425.22 50.24 425.34 50.31 425.49 50.38 425.65 50.44 425.79 50.48 426.01 50.54 426.30 50.61 426.67 50.70 427.12 50.80 427.78 50.99 428.36 51.17 428.86 51.33 429.27 51.47 429.61 51.60 429.89 51.74 430.15 51.90 430.38 52.08 430.59 52.28 430.77 52.51 430.92 52.76 431.04 53.03 431.12 53.33 431.17 53.65 431.19 53.99 431.17 54.33 431.11 54.66 431.01 54.99 430.87 55.31 430.69 55.62 430.48 55.91 430.23 56.17 429.94 56.41 429.62 56.62 429.27 56.80 428.89 56.95 428.48 57.06 428.06 57.15 427.62 57.20 427.16 57.21 426.42 57.18 425.75 57.08 425.16 56.92 424.64 56.70 424.20 56.41 423.82 56.06 423.50 55.64 423.24 55.17 423.04 54.63 422.90 54.03 Z M 440.09 54.03 L 441.76 54.24 441.56 54.78 441.30 55.27 440.99 55.71 440.62 56.09 440.20 56.43 439.72 56.71 439.19 56.93 438.61 57.09 437.97 57.18 437.29 57.21 436.44 57.16 435.66 57.00 434.95 56.73 434.32 56.35 433.76 55.87 433.30 55.28 432.93 54.62 432.67 53.86 432.52 53.02 432.46 52.09 432.52 51.13 432.68 50.26 432.94 49.48 433.31 48.79 433.78 48.19 434.34 47.69 434.97 47.30 435.65 47.02 436.40 46.86 437.21 46.80 437.99 46.86 438.71 47.02 439.38 47.30 439.98 47.69 440.53 48.18 440.99 48.78 441.35 49.47 441.61 50.25 441.76 51.12 441.81 52.08 441.81 52.15 441.81 52.23 441.81 52.32 441.81 52.42 441.80 52.54 434.16 52.54 434.23 53.09 434.37 53.58 434.56 54.02 434.82 54.41 435.14 54.75 435.51 55.02 435.91 55.24 436.35 55.39 436.82 55.48 437.33 55.51 437.71 55.50 438.06 55.46 438.40 55.38 438.71 55.29 438.99 55.16 439.26 55.00 439.50 54.81 439.72 54.58 439.92 54.32 440.09 54.03 Z M 434.16 50.84 L 440.11 50.84 440.05 50.45 439.95 50.10 439.81 49.79 439.64 49.52 439.43 49.30 439.07 49.01 438.66 48.79 438.22 48.63 437.73 48.53 437.20 48.50 436.72 48.53 436.27 48.60 435.85 48.73 435.46 48.91 435.10 49.14 434.80 49.41 434.55 49.71 434.36 50.05 434.23 50.43 434.16 50.84 Z M 443.51 57.00 L 443.52 47.01 445.22 47.01 445.22 48.41 445.68 47.83 446.22 47.38 446.84 47.06 447.53 46.86 448.29 46.80 448.64 46.81 448.97 46.85 449.29 46.92 449.60 47.01 449.90 47.12 450.18 47.26 450.42 47.42 450.64 47.59 450.83 47.77 450.99 47.97 451.13 48.19 451.25 48.43 451.35 48.68 451.43 48.94 451.50 49.22 451.53 49.44 451.56 49.71 451.58 50.04 451.59 50.43 451.59 50.87 451.58 57.00 449.88 57.00 449.89 51.10 449.88 50.71 449.86 50.37 449.82 50.07 449.77 49.81 449.70 49.59 449.61 49.40 449.49 49.23 449.35 49.07 449.19 48.92 449.01 48.80 448.80 48.69 448.58 48.61 448.35 48.55 448.10 48.51 447.84 48.50 447.42 48.53 447.03 48.61 446.66 48.74 446.31 48.93 445.99 49.17 445.71 49.48 445.49 49.89 445.34 50.40 445.25 51.00 445.21 51.70 445.21 57.00 Z M 453.29 54.03 L 454.99 53.81 455.06 54.13 455.18 54.41 455.34 54.66 455.53 54.88 455.77 55.07 456.05 55.23 456.37 55.35 456.73 55.44 457.13 55.49 457.57 55.51 458.02 55.50 458.41 55.45 458.76 55.37 459.06 55.26 459.31 55.11 459.51 54.94 459.67 54.77 459.78 54.58 459.85 54.38 459.87 54.17 459.85 53.98 459.78 53.81 459.67 53.66 459.51 53.52 459.31 53.40 459.11 53.32 458.84 53.24 458.49 53.14 458.06 53.03 457.56 52.92 456.87 52.73 456.27 52.56 455.76 52.39 455.34 52.23 455.00 52.09 454.72 51.94 454.47 51.76 454.24 51.57 454.05 51.35 453.88 51.12 453.75 50.86 453.64 50.60 453.56 50.32 453.52 50.04 453.50 49.75 453.52 49.48 453.55 49.21 453.62 48.96 453.70 48.72 453.81 48.48 453.94 48.25 454.09 48.04 454.26 47.85 454.44 47.67 454.64 47.51 454.82 47.40 455.01 47.29 455.22 47.19 455.46 47.09 455.73 47.01 456.00 46.93 456.29 46.87 456.58 46.83 456.88 46.81 457.19 46.80 457.65 46.81 458.08 46.85 458.50 46.92 458.89 47.01 459.26 47.13 459.59 47.28 459.89 47.44 460.16 47.62 460.38 47.82 460.57 48.04 460.73 48.28 460.87 48.55 460.98 48.86 461.08 49.20 461.15 49.56 459.45 49.78 459.39 49.55 459.30 49.34 459.17 49.15 459.01 48.98 458.81 48.84 458.59 48.72 458.32 48.62 458.02 48.55 457.69 48.51 457.32 48.50 456.89 48.51 456.51 48.55 456.19 48.62 455.91 48.71 455.69 48.82 455.52 48.96 455.38 49.10 455.28 49.25 455.22 49.41 455.20 49.57 455.21 49.68 455.23 49.78 455.28 49.88 455.33 49.98 455.40 50.07 455.50 50.16 455.60 50.24 455.73 50.31 455.88 50.38 456.04 50.44 456.18 50.48 456.39 50.54 456.69 50.61 457.06 50.70 457.50 50.80 458.17 50.99 458.75 51.17 459.24 51.33 459.66 51.47 460.00 51.60 460.28 51.74 460.54 51.90 460.77 52.08 460.98 52.28 461.16 52.51 461.31 52.76 461.42 53.03 461.51 53.33 461.56 53.65 461.57 53.99 461.55 54.33 461.49 54.66 461.40 54.99 461.26 55.31 461.08 55.62 460.86 55.91 460.61 56.17 460.33 56.41 460.01 56.62 459.65 56.80 459.27 56.95 458.87 57.06 458.45 57.15 458.01 57.20 457.55 57.21 456.81 57.18 456.14 57.08 455.55 56.92 455.03 56.70 454.58 56.41 454.21 56.06 453.89 55.64 453.63 55.17 453.43 54.63 453.29 54.03 Z M 463.06 52.01 L 463.12 50.96 463.30 50.02 463.60 49.20 464.01 48.50 464.54 47.91 465.05 47.51 465.61 47.20 466.21 46.98 466.85 46.84 467.53 46.80 468.29 46.85 468.99 47.02 469.63 47.28 470.22 47.66 470.74 48.15 471.19 48.73 471.54 49.39 471.79 50.13 471.94 50.96 471.99 51.87 471.97 52.60 471.90 53.27 471.79 53.88 471.63 54.42 471.43 54.89 471.19 55.31 470.91 55.69 470.59 56.04 470.23 56.34 469.83 56.60 469.40 56.82 468.95 56.99 468.49 57.12 468.02 57.19 467.52 57.21 466.76 57.16 466.05 57.00 465.40 56.73 464.82 56.35 464.29 55.87 463.85 55.29 463.51 54.61 463.26 53.84 463.11 52.97 463.06 52.01 Z M 464.76 52.00 L 464.80 52.67 464.89 53.27 465.04 53.80 465.26 54.25 465.55 54.64 465.88 54.95 466.24 55.20 466.64 55.37 467.06 55.48 467.52 55.51 467.98 55.48 468.41 55.37 468.80 55.20 469.17 54.95 469.50 54.63 469.78 54.24 470.00 53.78 470.16 53.24 470.26 52.63 470.29 51.95 470.26 51.30 470.16 50.72 470.01 50.21 469.78 49.76 469.50 49.37 469.17 49.06 468.81 48.81 468.41 48.64 467.99 48.53 467.53 48.50 467.07 48.53 466.65 48.64 466.25 48.81 465.89 49.06 465.55 49.37 465.27 49.76 465.05 50.21 464.89 50.74 464.80 51.33 464.76 52.00 Z M 473.90 57.00 L 473.91 47.01 475.39 47.01 475.39 48.49 475.62 48.11 475.84 47.78 476.05 47.50 476.25 47.29 476.45 47.13 476.65 47.01 476.85 46.92 477.06 46.85 477.28 46.81 477.51 46.80 477.85 46.82 478.19 46.88 478.53 46.99 478.87 47.14 479.22 47.32 478.65 48.85 478.41 48.72 478.17 48.63 477.93 48.56 477.69 48.51 477.46 48.50 477.25 48.51 477.04 48.55 476.85 48.62 476.67 48.71 476.49 48.84 476.33 48.98 476.19 49.15 476.07 49.33 475.96 49.54 475.88 49.77 475.78 50.13 475.70 50.52 475.65 50.91 475.61 51.33 475.60 51.75 475.60 57.00 Z" />
<path fill="none" stroke="rgb(0,0,0)" stroke-width="3" d=" M 346 250 L 496 250 496 450 346 450 346 250 Z" />
<path fill="rgb(239,239,239)" stroke="rgb(0,0,0)" stroke-width="2" d=" M 381.90 109.96 Q 382.64 109.73 384.18 108.91 Q 385.72 108.09 387.07 106.98 Q 388.42 105.88 389.52 104.53 Q 390.63 103.18 391.45 101.64 Q 392.28 100.10 392.78 98.43 Q 393.29 96.76 393.46 95.03 Q 393.63 93.29 393.46 91.56 Q 393.29 89.82 392.78 88.15 Q 392.28 86.48 391.45 84.94 Q 390.63 83.40 389.52 82.06 Q 388.42 80.71 387.07 79.60 Q 385.72 78.49 384.18 77.67 Q 382.64 76.85 380.97 76.34 Q 379.31 75.84 377.57 75.67 Q 375.83 75.49 374.10 75.67 Q 372.36 75.84 370.69 76.34 Q 369.02 76.85 367.48 77.67 Q 365.95 78.49 364.60 79.60 Q 363.25 80.71 362.14 82.06 Q 361.04 83.40 360.21 84.94 Q 359.39 86.48 358.88 88.15 Q 358.38 89.82 358.21 91.56 Q 358.04 93.29 358.21 95.03 Q 358.38 96.76 358.88 98.43 Q 359.39 100.10 360.21 101.64 Q 361.04 103.18 362.14 104.53 Q 363.25 105.88 364.60 106.98 Q 365.95 108.09 367.48 108.91 Q 369.02 109.73 369.39 109.85 Z" />
<circle cx="375.83" cy="93.33" r="14.67" fill="rgb(249,249,249)" stroke="rgb(0,0,0)" stroke-width="1" />
<path fill="none" stroke="rgb(238,238,238)" stroke-width="2" d=" M 373.55 84.77 Q 372.45 85.11 371.68 85.52 Q 370.91 85.93 370.24 86.48 Q 369.57 87.03 369.02 87.70 Q 368.47 88.37 368.06 89.14 Q 367.65 89.90 367.48 90.46" />
<polyline points="306.67 267.92 296.67 267.92" fill="none" stroke="rgb(0,0,0)" stroke-width="2" />
<polyline points="291.67 267.92 281.67 267.92" fill="none" stroke="rgb(0,0,0)" stroke-width="2" />
<polyline points="276.67 267.92 266.67 267.92" fill="none" stroke="rgb(0,0,0)" stroke-width="2" />
<circle cx="322.63" cy="267.92" r="15.04" fill="none" stroke="rgb(0,0,0)" stroke-width="2" />
<polyline points="328.67 273.92 328.67 261.92 322.67 267.92 316.67 261.92 316.67 273.92" fill="none" stroke="rgb(0,0,0)" stroke-width="2" />
<polyline points="181.67 267.92 191.67 267.92" fill="none" stroke="rgb(0,0,0)" stroke-width="2" />
<polyline points="196.67 267.92 206.67 267.92" fill="none" stroke="rgb(0,0,0)" stroke-width="2" />
<polyline points="211.67 267.92 221.67 267.92" fill="none" stroke="rgb(0,0,0)" stroke-width="2" />
<circle cx="165.70" cy="267.92" r="15.04" fill="none" stroke="rgb(0,0,0)" stroke-width="2" />
<polyline points="159.67 273.92 159.67 261.92 165.67 267.92 171.67 261.92 171.67 273.92" fill="none" stroke="rgb(0,0,0)" stroke-width="2" />
<path fill="none" stroke="rgb(0,0,0)" stroke-width="3" d=" M 267 250 L 346 250 346 316 267 316 267 250 Z" />
<path fill="none" stroke="rgb(0,0,0)" stroke-width="3" d=" M 267 316 L 346 316 346 383 267 383 267 316 Z" />
<path fill="none" stroke="rgb(0,0,0)" stroke-width="3" d=" M 267 383 L 346 383 346 450 267 450 267 383 Z" />
<path fill="none" stroke="rgb(0,0,0)" stroke-width="3" d=" M 142 245 L 221 245 221 291 142 291 142 245 Z" />
<path fill="none" stroke="rgb(0,0,0)" stroke-width="3" d=" M 62 185 L 141 185 141 231 62 231 62 185 Z" />
<polyline points="101.66 207.91 111.66 207.91" fill="none" stroke="rgb(0,0,0)" stroke-width="2" />
<polyline points="116.66 207.91 126.66 207.91" fill="none" stroke="rgb(0,0,0)" stroke-width="2" />
<polyline points="131.66 207.91 141.66 207.91" fill="none" stroke="rgb(0,0,0)" stroke-width="2" />
<circle cx="85.70" cy="207.91" r="15.04" fill="none" stroke="rgb(0,0,0)" stroke-width="2" />
<polyline points="79.66 213.91 79.66 201.91 85.66 207.91 91.66 201.91 91.66 213.91" fill="none" stroke="rgb(0,0,0)" stroke-width="2" />
<polyline points="306.67 334.58 296.67 334.58" fill="none" stroke="rgb(0,0,0)" stroke-width="2" />
<polyline points="291.67 334.58 281.67 334.58" fill="none" stroke="rgb(0,0,0)" stroke-width="2" />
<polyline points="276.67 334.58 266.67 334.58" fill="none" stroke="rgb(0,0,0)" stroke-width="2" />
<circle cx="322.63" cy="334.58" r="15.04" fill="none" stroke="rgb(0,0,0)" stroke-width="2" />
<polyline points="328.67 340.58 328.67 328.58 322.67 334.58 316.67 328.58 316.67 340.58" fill="none" stroke="rgb(0,0,0)" stroke-width="2" />
<polyline points="306.67 401.25 296.67 401.25" fill="none" stroke="rgb(0,0,0)" stroke-width="2" />
<polyline points="291.67 401.25 281.67 401.25" fill="none" stroke="rgb(0,0,0)" stroke-width="2" />
<polyline points="276.67 401.25 266.67 401.25" fill="none" stroke="rgb(0,0,0)" stroke-width="2" />
<circle cx="322.63" cy="401.25" r="15.04" fill="none" stroke="rgb(0,0,0)" stroke-width="2" />
<polyline points="328.67 407.25 328.67 395.25 322.67 401.25 316.67 395.25 316.67 407.25" fill="none" stroke="rgb(0,0,0)" stroke-width="2" />
<path fill="none" stroke="rgb(0,0,0)" stroke-width="2" stroke-dasharray="4,8" d=" M 396 300 L 446 300 446 400 396 400 396 300 Z" />
<path fill="rgb(0,0,0)" stroke="rgb(0,0,0)" stroke-width="0" d=" M 426.23 383.67 L 417.91 383.67 417.91 380.08 417.92 379.66 417.95 379.29 417.99 378.96 418.06 378.66 418.14 378.42 418.24 378.20 418.37 378.00 418.53 377.81 418.72 377.65 418.93 377.51 419.16 377.38 419.41 377.29 419.66 377.22 419.92 377.18 420.19 377.17 420.54 377.19 420.86 377.26 421.16 377.37 421.43 377.53 421.69 377.73 421.92 377.98 422.11 378.28 422.26 378.63 422.38 379.03 422.46 379.47 422.55 379.33 422.64 379.19 422.73 379.07 422.82 378.97 422.91 378.88 423.10 378.71 423.31 378.54 423.52 378.38 423.75 378.21 423.98 378.04 426.23 376.66 426.23 377.87 424.51 378.95 424.22 379.13 423.97 379.30 423.74 379.46 423.54 379.60 423.37 379.73 423.22 379.85 423.09 379.96 422.98 380.07 422.90 380.18 422.83 380.28 422.77 380.37 422.73 380.47 422.69 380.57 422.66 380.67 422.63 380.77 422.62 380.85 422.61 380.96 422.60 381.08 422.59 381.22 422.59 381.37 422.59 382.63 426.23 382.63 Z M 421.55 382.63 L 421.55 380.30 421.55 380.02 421.53 379.75 421.50 379.52 421.46 379.30 421.41 379.11 421.34 378.94 421.26 378.79 421.17 378.66 421.06 378.54 420.93 378.44 420.80 378.35 420.67 378.29 420.53 378.24 420.38 378.22 420.23 378.21 420.01 378.22 419.82 378.28 419.63 378.37 419.46 378.49 419.31 378.65 419.18 378.84 419.08 379.08 419.01 379.36 418.97 379.68 418.95 380.04 418.95 382.63 Z M 425.45 371.58 L 425.64 371.78 425.81 371.98 425.95 372.18 426.06 372.39 426.16 372.59 426.23 372.80 426.29 373.02 426.33 373.24 426.36 373.47 426.36 373.71 426.34 374.08 426.28 374.42 426.19 374.72 426.05 374.99 425.87 375.22 425.66 375.41 425.43 375.55 425.18 375.66 424.90 375.72 424.61 375.74 424.43 375.73 424.26 375.71 424.10 375.67 423.94 375.61 423.79 375.54 423.64 375.46 423.51 375.36 423.39 375.26 423.28 375.14 423.19 375.02 423.10 374.89 423.03 374.75 422.96 374.60 422.90 374.45 422.85 374.29 422.82 374.16 422.78 374.00 422.75 373.82 422.72 373.62 422.69 373.39 422.63 372.93 422.56 372.51 422.49 372.15 422.41 371.84 422.33 371.59 422.27 371.58 422.21 371.58 422.16 371.58 422.13 371.58 422.10 371.58 421.90 371.59 421.72 371.62 421.56 371.68 421.44 371.76 421.33 371.86 421.23 372.03 421.14 372.23 421.08 372.46 421.05 372.72 421.03 373.01 421.04 373.28 421.07 373.52 421.11 373.73 421.16 373.92 421.23 374.07 421.33 374.20 421.44 374.31 421.59 374.41 421.75 374.50 421.94 374.57 421.81 375.61 421.57 375.55 421.35 375.47 421.15 375.38 420.96 375.28 420.80 375.16 420.65 375.02 420.52 374.86 420.40 374.68 420.29 374.48 420.20 374.25 420.13 374.01 420.07 373.75 420.03 373.47 420.00 373.18 419.99 372.88 420.00 372.58 420.02 372.31 420.06 372.05 420.11 371.82 420.18 371.62 420.26 371.44 420.34 371.27 420.43 371.13 420.53 371.01 420.64 370.91 420.76 370.82 420.89 370.75 421.03 370.68 421.18 370.63 421.35 370.59 421.47 370.57 421.62 370.56 421.80 370.55 422.02 370.54 422.26 370.54 423.55 370.54 424.06 370.54 424.49 370.53 424.85 370.52 425.14 370.51 425.36 370.49 425.54 370.46 425.72 370.43 425.89 370.39 426.06 370.34 426.23 370.28 426.23 371.32 426.10 371.40 425.95 371.46 425.79 371.51 425.63 371.55 425.45 371.58 Z M 423.37 371.58 L 423.45 371.83 423.51 372.12 423.58 372.45 423.64 372.83 423.69 373.26 423.72 373.50 423.76 373.71 423.79 373.88 423.82 374.03 423.86 374.15 423.90 374.25 423.95 374.34 424.00 374.43 424.07 374.50 424.14 374.56 424.21 374.61 424.29 374.65 424.37 374.68 424.45 374.70 424.54 374.70 424.67 374.69 424.79 374.65 424.90 374.59 425.00 374.50 425.10 374.39 425.18 374.26 425.24 374.10 425.29 373.92 425.31 373.71 425.32 373.48 425.31 373.25 425.28 373.03 425.23 372.82 425.16 372.62 425.07 372.43 424.97 372.26 424.86 372.10 424.74 371.96 424.61 371.85 424.47 371.75 424.35 371.69 424.21 371.65 424.05 371.61 423.87 371.59 423.67 371.59 Z M 424.41 369.50 L 424.28 368.46 424.48 368.41 424.65 368.34 424.80 368.25 424.94 368.13 425.06 367.98 425.15 367.81 425.23 367.62 425.28 367.40 425.31 367.15 425.32 366.88 425.31 366.61 425.28 366.37 425.23 366.15 425.17 365.97 425.08 365.82 424.98 365.69 424.87 365.60 424.75 365.53 424.63 365.49 424.50 365.47 424.39 365.49 424.28 365.53 424.19 365.60 424.11 365.69 424.03 365.82 423.98 365.94 423.93 366.11 423.87 366.32 423.81 366.58 423.74 366.89 423.62 367.31 423.51 367.67 423.41 367.99 423.32 368.25 423.23 368.45 423.14 368.63 423.03 368.78 422.91 368.92 422.78 369.03 422.63 369.14 422.48 369.22 422.32 369.29 422.15 369.33 421.98 369.36 421.80 369.37 421.63 369.36 421.47 369.34 421.32 369.30 421.17 369.25 421.02 369.18 420.88 369.10 420.75 369.01 420.64 368.91 420.53 368.79 420.43 368.67 420.36 368.57 420.29 368.45 420.23 368.32 420.17 368.17 420.12 368.01 420.07 367.84 420.04 367.67 420.01 367.49 420.00 367.30 419.99 367.11 420.00 366.83 420.03 366.57 420.07 366.31 420.12 366.07 420.20 365.85 420.28 365.64 420.38 365.46 420.49 365.30 420.62 365.16 420.75 365.04 420.90 364.95 421.07 364.86 421.25 364.79 421.46 364.73 421.68 364.69 421.81 365.73 421.67 365.77 421.55 365.82 421.43 365.90 421.33 366.00 421.24 366.12 421.17 366.26 421.11 366.42 421.07 366.60 421.04 366.81 421.03 367.03 421.04 367.30 421.06 367.53 421.10 367.73 421.16 367.89 421.23 368.03 421.31 368.14 421.40 368.22 421.49 368.28 421.59 368.32 421.69 368.33 421.76 368.32 421.82 368.31 421.88 368.28 421.94 368.25 421.99 368.21 422.05 368.15 422.10 368.08 422.14 368.01 422.18 367.92 422.22 367.82 422.25 367.73 422.28 367.60 422.32 367.42 422.38 367.20 422.44 366.92 422.56 366.52 422.66 366.16 422.76 365.86 422.85 365.60 422.93 365.40 423.02 365.22 423.11 365.06 423.22 364.92 423.35 364.80 423.49 364.69 423.64 364.60 423.81 364.52 423.99 364.47 424.18 364.44 424.39 364.43 424.60 364.44 424.80 364.48 425.00 364.54 425.20 364.63 425.39 364.73 425.56 364.87 425.73 365.02 425.87 365.19 426.00 365.39 426.11 365.61 426.20 365.84 426.27 366.08 426.32 366.34 426.35 366.61 426.36 366.89 426.34 367.35 426.28 367.75 426.19 368.12 426.05 368.43 425.87 368.71 425.66 368.94 425.40 369.13 425.11 369.29 424.78 369.41 424.41 369.50 Z M 428.57 363.27 L 420.12 363.26 420.12 362.22 421.14 362.22 420.92 362.09 420.73 361.95 420.56 361.81 420.41 361.66 420.28 361.50 420.18 361.33 420.10 361.15 420.04 360.96 420.00 360.75 419.99 360.53 420.01 360.24 420.06 359.96 420.14 359.69 420.25 359.44 420.40 359.21 420.57 358.99 420.77 358.80 421.00 358.63 421.25 358.48 421.53 358.35 421.83 358.24 422.14 358.16 422.46 358.11 422.79 358.07 423.13 358.06 423.50 358.07 423.85 358.11 424.19 358.18 424.51 358.27 424.82 358.39 425.10 358.53 425.36 358.70 425.59 358.89 425.79 359.11 425.96 359.34 426.11 359.60 426.22 359.85 426.30 360.12 426.35 360.39 426.36 360.66 426.35 360.86 426.32 361.05 426.27 361.23 426.19 361.40 426.10 361.56 425.98 361.72 425.86 361.86 425.72 361.99 425.58 362.11 425.42 362.22 428.57 362.23 Z M 423.23 362.22 L 423.63 362.20 424.00 362.15 424.31 362.06 424.58 361.93 424.81 361.77 425.00 361.59 425.14 361.38 425.24 361.16 425.30 360.93 425.32 360.68 425.30 360.43 425.24 360.19 425.13 359.97 424.98 359.76 424.79 359.57 424.56 359.40 424.28 359.27 423.95 359.18 423.57 359.12 423.15 359.10 422.75 359.12 422.39 359.17 422.07 359.26 421.79 359.39 421.56 359.55 421.37 359.74 421.22 359.94 421.12 360.16 421.05 360.39 421.03 360.63 421.06 360.88 421.12 361.11 421.24 361.33 421.39 361.54 421.59 361.74 421.84 361.91 422.13 362.05 422.45 362.14 422.82 362.20 423.23 362.22 Z M 426.23 355.85 L 426.23 356.89 417.91 356.89 417.91 355.85 421.00 355.85 420.64 355.58 420.36 355.28 420.15 354.95 420.03 354.60 419.99 354.21 420.00 354.00 420.03 353.78 420.07 353.57 420.14 353.37 420.22 353.17 420.32 352.98 420.43 352.81 420.56 352.65 420.70 352.50 420.86 352.36 421.03 352.24 421.21 352.13 421.41 352.03 421.62 351.95 421.85 351.87 422.08 351.80 422.32 351.75 422.57 351.72 422.83 351.70 423.09 351.69 423.68 351.72 424.23 351.81 424.71 351.96 425.14 352.17 425.51 352.44 425.82 352.75 426.06 353.08 426.23 353.44 426.33 353.82 426.36 354.23 426.32 354.62 426.19 354.98 425.97 355.31 425.66 355.60 425.26 355.85 Z M 423.14 355.85 L 423.52 355.84 423.85 355.81 424.14 355.75 424.39 355.67 424.59 355.57 424.85 355.37 425.06 355.15 425.21 354.90 425.29 354.62 425.32 354.32 425.30 354.07 425.24 353.83 425.13 353.61 424.98 353.40 424.78 353.20 424.55 353.03 424.27 352.90 423.94 352.81 423.58 352.75 423.17 352.73 422.76 352.75 422.39 352.80 422.06 352.89 421.79 353.02 421.56 353.18 421.37 353.37 421.22 353.57 421.12 353.78 421.05 354.02 421.03 354.26 421.05 354.52 421.12 354.75 421.23 354.98 421.38 355.18 421.57 355.38 421.81 355.55 422.08 355.68 422.40 355.77 422.75 355.83 423.14 355.85 Z M 424.41 346.24 L 424.54 345.22 424.87 345.35 425.17 345.50 425.44 345.69 425.68 345.92 425.89 346.18 426.06 346.47 426.19 346.80 426.29 347.15 426.34 347.54 426.36 347.96 426.33 348.48 426.23 348.95 426.07 349.39 425.84 349.77 425.54 350.11 425.18 350.40 424.77 350.62 424.31 350.78 423.80 350.88 423.23 350.91 422.64 350.88 422.11 350.78 421.63 350.62 421.21 350.39 420.84 350.10 420.54 349.76 420.30 349.38 420.13 348.96 420.03 348.50 419.99 348.01 420.03 347.53 420.13 347.09 420.30 346.68 420.54 346.31 420.84 345.98 421.21 345.69 421.63 345.47 422.10 345.32 422.64 345.22 423.22 345.19 423.26 345.19 423.31 345.19 423.37 345.19 423.43 345.19 423.50 345.20 423.50 349.87 423.84 349.83 424.14 349.75 424.41 349.63 424.65 349.47 424.85 349.27 425.02 349.05 425.15 348.80 425.25 348.53 425.30 348.25 425.32 347.94 425.31 347.70 425.29 347.49 425.25 347.28 425.18 347.09 425.11 346.91 425.01 346.75 424.89 346.60 424.75 346.47 424.59 346.35 424.41 346.24 Z M 422.46 349.87 L 422.46 346.23 422.22 346.27 422.01 346.33 421.82 346.41 421.66 346.52 421.52 346.65 421.35 346.87 421.21 347.12 421.11 347.39 421.05 347.69 421.03 348.01 421.05 348.31 421.10 348.58 421.17 348.84 421.28 349.08 421.42 349.29 421.59 349.48 421.78 349.64 421.98 349.75 422.21 349.83 422.46 349.87 Z M 426.23 344.15 L 420.12 344.15 420.12 343.24 421.03 343.24 420.79 343.10 420.59 342.97 420.42 342.84 420.29 342.71 420.19 342.59 420.12 342.47 420.07 342.35 420.03 342.22 420.00 342.08 419.99 341.94 420.01 341.74 420.04 341.53 420.11 341.32 420.20 341.11 420.31 340.90 421.25 341.24 421.17 341.39 421.11 341.54 421.07 341.68 421.04 341.83 421.03 341.98 421.04 342.10 421.07 342.23 421.11 342.34 421.16 342.46 421.24 342.57 421.33 342.66 421.43 342.75 421.54 342.83 421.67 342.89 421.81 342.94 422.03 343.00 422.27 343.05 422.51 343.08 422.76 343.10 423.02 343.11 426.23 343.11 Z M 426.23 340.25 L 420.12 340.25 420.12 339.34 421.03 339.34 420.79 339.20 420.59 339.07 420.42 338.94 420.29 338.81 420.19 338.69 420.12 338.57 420.07 338.45 420.03 338.32 420.00 338.18 419.99 338.04 420.01 337.84 420.04 337.63 420.11 337.42 420.20 337.21 420.31 337.00 421.25 337.34 421.17 337.49 421.11 337.64 421.07 337.78 421.04 337.93 421.03 338.08 421.04 338.20 421.07 338.33 421.11 338.44 421.16 338.56 421.24 338.67 421.33 338.76 421.43 338.85 421.54 338.93 421.67 338.99 421.81 339.04 422.03 339.10 422.27 339.15 422.51 339.18 422.76 339.20 423.02 339.21 426.23 339.21 Z M 428.57 336.36 L 427.57 336.49 427.60 336.37 427.63 336.26 427.65 336.15 427.66 336.05 427.66 335.96 427.66 335.84 427.64 335.73 427.62 335.63 427.59 335.54 427.55 335.46 427.50 335.39 427.44 335.33 427.38 335.27 427.31 335.21 427.23 335.16 427.15 335.12 427.03 335.07 426.88 335.02 426.69 334.95 426.46 334.87 426.42 334.86 426.38 334.85 426.33 334.83 426.27 334.81 426.21 334.79 420.12 337.00 420.12 335.90 423.52 334.73 423.78 334.64 424.04 334.56 424.31 334.48 424.59 334.40 424.87 334.32 424.66 334.25 424.43 334.17 424.19 334.09 423.94 334.01 423.67 333.92 420.12 332.71 420.12 331.62 426.38 333.75 426.75 333.89 427.07 334.01 427.34 334.12 427.56 334.22 427.74 334.31 427.93 334.41 428.09 334.53 428.24 334.65 428.37 334.78 428.47 334.91 428.55 335.05 428.62 335.20 428.67 335.36 428.69 335.54 428.70 335.72 428.70 335.84 428.68 335.96 428.66 336.09 428.62 336.22 428.57 336.36 Z M 426.23 327.12 L 417.91 327.12 417.91 324.03 417.92 323.72 417.93 323.44 417.94 323.19 417.96 322.98 417.99 322.79 418.04 322.56 418.10 322.34 418.18 322.14 418.27 321.95 418.38 321.78 418.51 321.62 418.65 321.48 418.81 321.35 418.99 321.23 419.19 321.12 419.40 321.04 419.62 320.97 419.84 320.92 420.08 320.89 420.32 320.88 420.73 320.90 421.12 320.98 421.48 321.12 421.81 321.31 422.12 321.55 422.38 321.86 422.59 322.26 422.74 322.74 422.82 323.31 422.85 323.96 422.85 326.08 426.23 326.08 Z M 421.81 326.08 L 421.81 323.90 421.80 323.50 421.75 323.14 421.68 322.83 421.57 322.58 421.43 322.37 421.27 322.21 421.08 322.08 420.86 321.99 420.62 321.94 420.36 321.92 420.16 321.93 419.98 321.96 419.81 322.01 419.64 322.09 419.50 322.18 419.36 322.30 419.25 322.42 419.15 322.56 419.08 322.72 419.02 322.88 419.00 323.02 418.98 323.19 418.96 323.39 418.96 323.64 418.95 323.92 418.95 326.08 Z M 418.95 319.58 L 417.91 319.58 417.91 318.54 418.95 318.54 Z M 426.23 319.58 L 420.12 319.58 420.12 318.54 426.23 318.54 Z" />
<path fill="rgb(0,0,0)" stroke="rgb(0,0,0)" stroke-width="0" d=" M 383.05 269.53 L 386.64 260.57 387.59 260.57 391.16 269.53 389.98 269.53 388.95 266.73 385.26 266.73 384.24 269.53 Z M 385.68 265.61 L 388.55 265.61 387.74 263.41 387.58 262.98 387.44 262.59 387.32 262.25 387.21 261.95 387.12 261.69 387.01 261.97 386.91 262.26 386.79 262.57 386.68 262.89 386.56 263.22 Z M 392.22 269.53 L 392.22 262.95 393.34 262.95 393.34 263.87 393.65 263.49 394.00 263.19 394.41 262.98 394.86 262.86 395.37 262.81 395.60 262.82 395.81 262.85 396.03 262.89 396.23 262.95 396.43 263.03 396.61 263.12 396.77 263.22 396.92 263.33 397.04 263.45 397.15 263.59 397.24 263.73 397.32 263.88 397.38 264.05 397.44 264.22 397.48 264.41 397.50 264.55 397.52 264.73 397.53 264.95 397.54 265.20 397.54 265.49 397.54 269.53 396.42 269.53 396.42 265.64 396.42 265.39 396.40 265.17 396.38 264.97 396.34 264.80 396.29 264.65 396.23 264.53 396.16 264.41 396.07 264.31 395.96 264.21 395.84 264.13 395.70 264.06 395.56 264.00 395.40 263.96 395.24 263.94 395.07 263.93 394.80 263.95 394.54 264.00 394.29 264.09 394.07 264.21 393.85 264.37 393.67 264.58 393.53 264.85 393.42 265.18 393.36 265.58 393.34 266.04 393.34 269.53 Z M 398.66 267.57 L 399.78 267.43 399.83 267.64 399.91 267.83 400.01 267.99 400.14 268.14 400.30 268.26 400.48 268.37 400.69 268.45 400.93 268.51 401.19 268.54 401.48 268.55 401.78 268.54 402.04 268.51 402.26 268.46 402.46 268.38 402.63 268.29 402.76 268.18 402.86 268.06 402.94 267.94 402.98 267.81 403.00 267.67 402.98 267.55 402.94 267.43 402.86 267.33 402.76 267.24 402.62 267.16 402.49 267.11 402.31 267.05 402.08 266.99 401.80 266.92 401.47 266.84 401.02 266.72 400.63 266.60 400.29 266.50 400.01 266.39 399.79 266.30 399.60 266.20 399.44 266.08 399.29 265.96 399.16 265.81 399.05 265.66 398.96 265.49 398.89 265.32 398.84 265.14 398.81 264.95 398.80 264.75 398.81 264.58 398.83 264.40 398.88 264.24 398.93 264.08 399.00 263.92 399.09 263.77 399.19 263.63 399.30 263.51 399.42 263.39 399.55 263.28 399.67 263.21 399.79 263.13 399.94 263.07 400.09 263.01 400.27 262.95 400.45 262.90 400.64 262.86 400.83 262.84 401.03 262.82 401.23 262.81 401.53 262.82 401.82 262.85 402.09 262.89 402.35 262.95 402.59 263.03 402.81 263.13 403.01 263.23 403.19 263.35 403.33 263.48 403.46 263.63 403.56 263.79 403.65 263.97 403.73 264.17 403.79 264.39 403.84 264.63 402.72 264.77 402.68 264.62 402.62 264.48 402.54 264.36 402.43 264.25 402.30 264.16 402.15 264.08 401.98 264.01 401.78 263.97 401.56 263.94 401.32 263.93 401.03 263.94 400.79 263.97 400.57 264.01 400.39 264.07 400.24 264.15 400.13 264.23 400.04 264.33 399.97 264.43 399.93 264.53 399.92 264.64 399.93 264.71 399.94 264.78 399.97 264.84 400.01 264.91 400.05 264.97 400.11 265.02 400.19 265.08 400.27 265.13 400.36 265.17 400.47 265.21 400.56 265.24 400.71 265.28 400.90 265.32 401.14 265.38 401.44 265.45 401.87 265.58 402.26 265.69 402.58 265.80 402.86 265.89 403.08 265.98 403.27 266.07 403.44 266.17 403.59 266.29 403.72 266.43 403.84 266.58 403.94 266.74 404.02 266.92 404.07 267.11 404.11 267.32 404.12 267.55 404.11 267.77 404.07 267.99 404.00 268.21 403.91 268.42 403.79 268.62 403.65 268.81 403.49 268.99 403.30 269.14 403.09 269.28 402.85 269.40 402.60 269.50 402.34 269.57 402.06 269.63 401.77 269.66 401.47 269.67 400.98 269.65 400.54 269.59 400.15 269.48 399.81 269.33 399.51 269.14 399.27 268.91 399.06 268.64 398.88 268.32 398.75 267.97 398.66 267.57 Z M 407.76 268.60 L 407.90 269.57 407.71 269.60 407.54 269.63 407.37 269.66 407.21 269.67 407.06 269.67 406.83 269.67 406.62 269.64 406.43 269.61 406.26 269.55 406.12 269.49 406.00 269.41 405.89 269.32 405.79 269.22 405.71 269.12 405.65 269.00 405.60 268.85 405.57 268.65 405.54 268.40 405.52 268.09 405.52 267.73 405.52 264.07 404.68 264.07 404.68 262.95 405.52 262.95 405.53 261.35 406.65 260.70 406.64 262.95 407.76 262.95 407.76 264.07 406.64 264.07 406.64 267.70 406.64 267.86 406.65 268.00 406.66 268.12 406.68 268.21 406.70 268.27 406.72 268.32 406.76 268.37 406.79 268.41 406.84 268.45 406.89 268.48 406.95 268.51 407.01 268.53 407.09 268.54 407.17 268.55 407.27 268.55 407.35 268.56 407.44 268.56 407.53 268.57 407.64 268.58 407.76 268.60 Z M 413.49 267.57 L 414.58 267.71 414.45 268.07 414.28 268.39 414.08 268.68 413.84 268.94 413.55 269.16 413.24 269.34 412.89 269.49 412.51 269.59 412.09 269.65 411.64 269.67 411.08 269.64 410.57 269.53 410.10 269.35 409.69 269.11 409.32 268.79 409.01 268.40 408.77 267.96 408.60 267.46 408.49 266.91 408.46 266.30 408.50 265.67 408.60 265.09 408.77 264.58 409.02 264.12 409.33 263.73 409.70 263.40 410.11 263.14 410.56 262.96 411.05 262.85 411.58 262.81 412.10 262.85 412.58 262.96 413.02 263.14 413.41 263.40 413.77 263.73 414.08 264.12 414.32 264.57 414.49 265.09 414.59 265.66 414.62 266.29 414.62 266.34 414.62 266.39 414.62 266.45 414.62 266.52 414.61 266.59 409.58 266.59 409.63 266.96 409.71 267.28 409.84 267.57 410.01 267.83 410.22 268.05 410.46 268.23 410.73 268.37 411.02 268.47 411.33 268.53 411.66 268.55 411.91 268.54 412.15 268.52 412.37 268.47 412.57 268.40 412.76 268.32 412.94 268.21 413.10 268.09 413.24 267.94 413.37 267.77 413.49 267.57 Z M 409.58 265.47 L 413.50 265.47 413.46 265.22 413.39 264.99 413.30 264.78 413.19 264.61 413.05 264.46 412.81 264.27 412.55 264.12 412.25 264.02 411.93 263.95 411.58 263.93 411.26 263.95 410.97 264.00 410.69 264.08 410.43 264.20 410.20 264.35 410.00 264.53 409.83 264.73 409.71 264.96 409.62 265.20 409.58 265.47 Z M 419.94 269.53 L 419.94 268.40 419.62 268.86 419.26 269.22 418.85 269.47 418.41 269.62 417.92 269.67 417.69 269.66 417.48 269.64 417.27 269.59 417.06 269.53 416.86 269.45 416.68 269.36 416.51 269.25 416.37 269.14 416.24 269.02 416.14 268.89 416.05 268.75 415.97 268.60 415.90 268.43 415.85 268.25 415.80 268.07 415.78 267.92 415.76 267.74 415.75 267.53 415.74 267.29 415.74 267.02 415.74 262.95 416.86 262.95 416.86 266.50 416.86 266.81 416.87 267.09 416.88 267.31 416.90 267.50 416.93 267.64 416.98 267.80 417.05 267.95 417.14 268.09 417.24 268.20 417.37 268.31 417.51 268.40 417.66 268.47 417.83 268.51 418.01 268.54 418.20 268.55 418.40 268.54 418.59 268.51 418.78 268.46 418.96 268.39 419.14 268.30 419.30 268.20 419.45 268.08 419.57 267.94 419.67 267.79 419.76 267.62 419.82 267.44 419.87 267.22 419.91 266.97 419.93 266.69 419.94 266.38 419.94 262.95 421.06 262.95 421.06 269.53 Z M 427.21 267.57 L 428.30 267.71 428.17 268.07 428.00 268.39 427.80 268.68 427.56 268.94 427.27 269.16 426.96 269.34 426.61 269.49 426.23 269.59 425.81 269.65 425.36 269.67 424.80 269.64 424.29 269.53 423.82 269.35 423.41 269.11 423.04 268.79 422.73 268.40 422.49 267.96 422.32 267.46 422.21 266.91 422.18 266.30 422.22 265.67 422.32 265.09 422.49 264.58 422.74 264.12 423.05 263.73 423.42 263.40 423.83 263.14 424.28 262.96 424.77 262.85 425.30 262.81 425.82 262.85 426.30 262.96 426.73 263.14 427.13 263.40 427.49 263.73 427.80 264.12 428.04 264.57 428.21 265.09 428.31 265.66 428.34 266.29 428.34 266.34 428.34 266.39 428.34 266.45 428.34 266.52 428.33 266.59 423.30 266.59 423.35 266.96 423.43 267.28 423.56 267.57 423.73 267.83 423.94 268.05 424.18 268.23 424.45 268.37 424.74 268.47 425.05 268.53 425.38 268.55 425.63 268.54 425.87 268.52 426.09 268.47 426.29 268.40 426.48 268.32 426.66 268.21 426.82 268.09 426.96 267.94 427.09 267.77 427.21 267.57 Z M 423.30 265.47 L 427.22 265.47 427.18 265.22 427.11 264.99 427.02 264.78 426.91 264.61 426.77 264.46 426.53 264.27 426.27 264.12 425.97 264.02 425.65 263.95 425.30 263.93 424.98 263.95 424.69 264.00 424.41 264.08 424.15 264.20 423.92 264.35 423.72 264.53 423.55 264.73 423.43 264.96 423.34 265.20 423.30 265.47 Z M 429.46 269.53 L 429.46 262.95 430.44 262.95 430.44 263.93 430.59 263.67 430.74 263.46 430.87 263.28 431.01 263.14 431.14 263.03 431.27 262.95 431.40 262.89 431.54 262.85 431.69 262.82 431.84 262.81 432.06 262.83 432.28 262.87 432.51 262.94 432.74 263.03 432.96 263.16 432.59 264.16 432.43 264.08 432.27 264.02 432.12 263.97 431.96 263.94 431.80 263.93 431.66 263.94 431.53 263.97 431.40 264.01 431.28 264.07 431.17 264.15 431.06 264.25 430.97 264.36 430.89 264.48 430.82 264.62 430.76 264.77 430.70 265.01 430.65 265.26 430.61 265.52 430.59 265.80 430.58 266.07 430.58 269.53 Z M 437.86 269.53 L 437.86 268.40 437.54 268.86 437.18 269.22 436.77 269.47 436.33 269.62 435.84 269.67 435.61 269.66 435.40 269.64 435.19 269.59 434.98 269.53 434.78 269.45 434.60 269.36 434.43 269.25 434.29 269.14 434.16 269.02 434.06 268.89 433.97 268.75 433.89 268.60 433.82 268.43 433.77 268.25 433.72 268.07 433.70 267.92 433.68 267.74 433.67 267.53 433.66 267.29 433.66 267.02 433.66 262.95 434.78 262.95 434.78 266.50 434.78 266.81 434.79 267.09 434.80 267.31 434.82 267.50 434.85 267.64 434.90 267.80 434.97 267.95 435.06 268.09 435.16 268.20 435.29 268.31 435.43 268.40 435.58 268.47 435.75 268.51 435.93 268.54 436.12 268.55 436.32 268.54 436.51 268.51 436.70 268.46 436.88 268.39 437.06 268.30 437.22 268.20 437.37 268.08 437.49 267.94 437.59 267.79 437.68 267.62 437.74 267.44 437.79 267.22 437.83 266.97 437.85 266.69 437.86 266.38 437.86 262.95 438.98 262.95 438.98 269.53 Z M 440.52 269.53 L 440.52 262.95 441.64 262.95 441.64 263.87 441.95 263.49 442.30 263.19 442.71 262.98 443.16 262.86 443.67 262.81 443.90 262.82 444.11 262.85 444.33 262.89 444.53 262.95 444.73 263.03 444.91 263.12 445.07 263.22 445.22 263.33 445.34 263.45 445.45 263.59 445.54 263.73 445.62 263.88 445.68 264.05 445.74 264.22 445.78 264.41 445.80 264.55 445.82 264.73 445.83 264.95 445.84 265.20 445.84 265.49 445.84 269.53 444.72 269.53 444.72 265.64 444.72 265.39 444.70 265.17 444.67 264.97 444.64 264.80 444.59 264.65 444.53 264.53 444.46 264.41 444.37 264.31 444.26 264.21 444.14 264.13 444.00 264.06 443.86 264.00 443.70 263.96 443.54 263.94 443.37 263.93 443.10 263.95 442.84 264.00 442.59 264.09 442.37 264.21 442.15 264.37 441.97 264.58 441.83 264.85 441.72 265.18 441.66 265.58 441.64 266.04 441.64 269.53 Z M 447.10 270.09 L 448.22 270.23 448.25 270.39 448.30 270.52 448.38 270.64 448.47 270.74 448.58 270.82 448.75 270.91 448.94 270.98 449.16 271.03 449.40 271.06 449.66 271.07 449.95 271.06 450.20 271.03 450.43 270.97 450.64 270.89 450.81 270.79 450.96 270.67 451.09 270.53 451.20 270.37 451.29 270.19 451.36 270.00 451.39 269.85 451.41 269.64 451.43 269.38 451.44 269.06 451.44 268.69 451.14 269.00 450.82 269.23 450.47 269.40 450.09 269.50 449.69 269.53 449.19 269.49 448.74 269.38 448.34 269.18 447.98 268.91 447.67 268.56 447.42 268.15 447.22 267.71 447.07 267.24 446.99 266.74 446.96 266.21 446.97 265.84 447.01 265.48 447.08 265.13 447.17 264.80 447.28 264.47 447.42 264.17 447.59 263.90 447.77 263.65 447.98 263.43 448.21 263.25 448.46 263.09 448.73 262.97 449.02 262.88 449.32 262.83 449.64 262.81 450.06 262.85 450.45 262.97 450.81 263.17 451.14 263.44 451.44 263.79 451.44 262.95 452.56 262.95 452.56 268.63 452.54 269.21 452.51 269.72 452.45 270.15 452.36 270.52 452.25 270.81 452.11 271.05 451.95 271.28 451.75 271.48 451.53 271.66 451.28 271.82 451.00 271.96 450.70 272.06 450.37 272.13 450.02 272.18 449.64 272.19 449.20 272.17 448.79 272.11 448.42 272.00 448.08 271.86 447.78 271.67 447.53 271.44 447.33 271.17 447.19 270.85 447.12 270.49 447.10 270.09 Z M 448.08 266.13 L 448.10 266.58 448.16 266.98 448.25 267.33 448.38 267.62 448.56 267.87 448.76 268.06 448.98 268.22 449.22 268.33 449.48 268.39 449.76 268.41 450.03 268.39 450.29 268.33 450.53 268.22 450.75 268.07 450.95 267.87 451.13 267.63 451.26 267.34 451.36 267.00 451.42 266.61 451.44 266.17 451.42 265.75 451.36 265.37 451.26 265.03 451.12 264.74 450.94 264.50 450.74 264.29 450.51 264.14 450.27 264.02 450.02 263.96 449.74 263.93 449.48 263.96 449.22 264.02 448.99 264.13 448.77 264.29 448.57 264.49 448.39 264.73 448.26 265.02 448.16 265.35 448.10 265.72 448.08 266.13 Z" />
<path fill="none" stroke="rgb(0,0,0)" stroke-width="2" d=" M 386 290 L 456 290 456 410 386 410 386 290 Z" />
<polyline points="181.67 431.25 191.67 431.25" fill="none" stroke="rgb(0,0,0)" stroke-width="2" />
<polyline points="196.67 431.25 206.67 431.25" fill="none" stroke="rgb(0,0,0)" stroke-width="2" />
<polyline points="211.67 431.25 221.67 431.25" fill="none" stroke="rgb(0,0,0)" stroke-width="2" />
<circle cx="165.70" cy="431.25" r="15.04" fill="none" stroke="rgb(0,0,0)" stroke-width="2" />
<polyline points="159.67 437.25 159.67 425.25 165.67 431.25 171.67 425.25 171.67 437.25" fill="none" stroke="rgb(0,0,0)" stroke-width="2" />
<path fill="none" stroke="rgb(0,0,0)" stroke-width="3" d=" M 142 455 L 221 455 221 408 142 408 142 455 Z" />
<path fill="none" stroke="rgb(0,0,0)" stroke-width="3" d=" M 62 515 L 141 515 141 468 62 468 62 515 Z" />
<polyline points="101.66 491.25 111.66 491.25" fill="none" stroke="rgb(0,0,0)" stroke-width="2" />
<polyline points="116.66 491.25 126.66 491.25" fill="none" stroke="rgb(0,0,0)" stroke-width="2" />
<polyline points="131.66 491.25 141.66 491.25" fill="none" stroke="rgb(0,0,0)" stroke-width="2" />
<circle cx="85.70" cy="491.25" r="15.04" fill="none" stroke="rgb(0,0,0)" stroke-width="2" />
<polyline points="79.66 497.25 79.66 485.25 85.66 491.25 91.66 485.25 91.66 497.25" fill="none" stroke="rgb(0,0,0)" stroke-width="2" />
<polyline points="345.83 289.58 255.83 289.58 255.83 269.58" fill="none" stroke="rgb(0,0,255)" stroke-width="2" />
<polyline points="266.67 267.92 255.83 267.91 255.83 269.58" fill="none" stroke="rgb(0,0,255)" stroke-width="2" />
<polyline points="345.83 299.58 245.83 299.58 245.83 267.91 221.67 267.92" fill="none" stroke="rgb(0,0,255)" stroke-width="2" />
<polyline points="345.83 309.58 235.83 309.58 235.83 207.91 141.66 207.91" fill="none" stroke="rgb(0,0,255)" stroke-width="2" />
<polyline points="345.83 419.58 255.83 419.58 255.83 401.25 266.67 401.25" fill="none" stroke="rgb(0,0,255)" stroke-width="2" />
<polyline points="345.83 439.58 235.83 439.58 235.83 491.25 141.66 491.25" fill="none" stroke="rgb(0,0,255)" stroke-width="2" />
<polyline points="181.67 347.92 191.67 347.92" fill="none" stroke="rgb(0,0,0)" stroke-width="2" />
<polyline points="196.67 347.92 206.67 347.92" fill="none" stroke="rgb(0,0,0)" stroke-width="2" />
<polyline points="211.67 347.92 221.67 347.92" fill="none" stroke="rgb(0,0,0)" stroke-width="2" />
<circle cx="165.70" cy="347.92" r="15.04" fill="none" stroke="rgb(0,0,0)" stroke-width="2" />
<polyline points="159.67 353.92 159.67 341.92 165.67 347.92 171.67 341.92 171.67 353.92" fill="none" stroke="rgb(0,0,0)" stroke-width="2" />
<path fill="none" stroke="rgb(0,0,0)" stroke-width="3" d=" M 142 325 L 221 325 221 371 142 371 142 325 Z" />
<polyline points="345.83 364.58 245.83 364.58 245.83 347.91 221.67 347.92" fill="none" stroke="rgb(0,0,255)" stroke-width="2" />
<polyline points="81.67 347.92 91.67 347.92" fill="none" stroke="rgb(0,0,0)" stroke-width="2" />
<polyline points="96.67 347.92 106.67 347.92" fill="none" stroke="rgb(0,0,0)" stroke-width="2" />
<polyline points="111.67 347.92 121.67 347.92" fill="none" stroke="rgb(0,0,0)" stroke-width="2" />
<circle cx="65.70" cy="347.92" r="15.04" fill="none" stroke="rgb(0,0,0)" stroke-width="2" />
<polyline points="59.67 353.92 59.67 341.92 65.67 347.92 71.67 341.92 71.67 353.92" fill="none" stroke="rgb(0,0,0)" stroke-width="2" />
<path fill="none" stroke="rgb(0,0,0)" stroke-width="3" d=" M 42 325 L 121 325 121 371 42 371 42 325 Z" />
<polyline points="121.67 347.92 130.83 347.91 130.83 379.58 235.83 379.58 235.83 374.58 345.83 374.58" fill="none" stroke="rgb(0,0,255)" stroke-width="2" />
<polyline points="345.83 354.58 255.83 354.58 255.83 334.58 266.67 334.58" fill="none" stroke="rgb(0,0,255)" stroke-width="2" />
<polyline points="221.67 431.25 345.83 431.25" fill="none" stroke="rgb(0,0,255)" stroke-width="2" />
<polyline points="535.50 267.92 545.50 267.92" fill="none" stroke="rgb(0,0,0)" stroke-width="2" />
<polyline points="550.50 267.92 560.50 267.92" fill="none" stroke="rgb(0,0,0)" stroke-width="2" />
<polyline points="565.50 267.92 575.50 267.92" fill="none" stroke="rgb(0,0,0)" stroke-width="2" />
<circle cx="519.54" cy="267.92" r="15.04" fill="none" stroke="rgb(0,0,0)" stroke-width="2" />
<polyline points="513.50 273.92 513.50 261.92 519.50 267.92 525.50 261.92 525.50 273.92" fill="none" stroke="rgb(0,0,0)" stroke-width="2" />
<polyline points="660.50 267.92 650.50 267.92" fill="none" stroke="rgb(0,0,0)" stroke-width="2" />
<polyline points="645.50 267.92 635.50 267.92" fill="none" stroke="rgb(0,0,0)" stroke-width="2" />
<polyline points="630.50 267.92 620.50 267.92" fill="none" stroke="rgb(0,0,0)" stroke-width="2" />
<circle cx="676.46" cy="267.92" r="15.04" fill="none" stroke="rgb(0,0,0)" stroke-width="2" />
<polyline points="682.50 273.92 682.50 261.92 676.50 267.92 670.50 261.92 670.50 273.92" fill="none" stroke="rgb(0,0,0)" stroke-width="2" />
<path fill="none" stroke="rgb(0,0,0)" stroke-width="3" d=" M 575 250 L 496 250 496 316 575 316 575 250 Z" />
<path fill="none" stroke="rgb(0,0,0)" stroke-width="3" d=" M 575 316 L 496 316 496 383 575 383 575 316 Z" />
<path fill="none" stroke="rgb(0,0,0)" stroke-width="3" d=" M 575 383 L 496 383 496 450 575 450 575 383 Z" />
<path fill="none" stroke="rgb(0,0,0)" stroke-width="3" d=" M 700 245 L 621 245 621 291 700 291 700 245 Z" />
<path fill="none" stroke="rgb(0,0,0)" stroke-width="3" d=" M 780 185 L 701 185 701 231 780 231 780 185 Z" />
<polyline points="740.50 207.91 730.50 207.91" fill="none" stroke="rgb(0,0,0)" stroke-width="2" />
<polyline points="725.50 207.91 715.50 207.91" fill="none" stroke="rgb(0,0,0)" stroke-width="2" />
<polyline points="710.50 207.91 700.50 207.91" fill="none" stroke="rgb(0,0,0)" stroke-width="2" />
<circle cx="756.47" cy="207.91" r="15.04" fill="none" stroke="rgb(0,0,0)" stroke-width="2" />
<polyline points="762.50 213.91 762.50 201.91 756.50 207.91 750.50 201.91 750.50 213.91" fill="none" stroke="rgb(0,0,0)" stroke-width="2" />
<polyline points="535.50 334.58 545.50 334.58" fill="none" stroke="rgb(0,0,0)" stroke-width="2" />
<polyline points="550.50 334.58 560.50 334.58" fill="none" stroke="rgb(0,0,0)" stroke-width="2" />
<polyline points="565.50 334.58 575.50 334.58" fill="none" stroke="rgb(0,0,0)" stroke-width="2" />
<circle cx="519.54" cy="334.58" r="15.04" fill="none" stroke="rgb(0,0,0)" stroke-width="2" />
<polyline points="513.50 340.58 513.50 328.58 519.50 334.58 525.50 328.58 525.50 340.58" fill="none" stroke="rgb(0,0,0)" stroke-width="2" />
<polyline points="535.50 401.25 545.50 401.25" fill="none" stroke="rgb(0,0,0)" stroke-width="2" />
<polyline points="550.50 401.25 560.50 401.25" fill="none" stroke="rgb(0,0,0)" stroke-width="2" />
<polyline points="565.50 401.25 575.50 401.25" fill="none" stroke="rgb(0,0,0)" stroke-width="2" />
<circle cx="519.54" cy="401.25" r="15.04" fill="none" stroke="rgb(0,0,0)" stroke-width="2" />
<polyline points="513.50 407.25 513.50 395.25 519.50 401.25 525.50 395.25 525.50 407.25" fill="none" stroke="rgb(0,0,0)" stroke-width="2" />
<polyline points="660.50 431.25 650.50 431.25" fill="none" stroke="rgb(0,0,0)" stroke-width="2" />
<polyline points="645.50 431.25 635.50 431.25" fill="none" stroke="rgb(0,0,0)" stroke-width="2" />
<polyline points="630.50 431.25 620.50 431.25" fill="none" stroke="rgb(0,0,0)" stroke-width="2" />
<circle cx="676.46" cy="431.25" r="15.04" fill="none" stroke="rgb(0,0,0)" stroke-width="2" />
<polyline points="682.50 437.25 682.50 425.25 676.50 431.25 670.50 425.25 670.50 437.25" fill="none" stroke="rgb(0,0,0)" stroke-width="2" />
<path fill="none" stroke="rgb(0,0,0)" stroke-width="3" d=" M 700 455 L 621 455 621 408 700 408 700 455 Z" />
<path fill="none" stroke="rgb(0,0,0)" stroke-width="3" d=" M 780 515 L 701 515 701 468 780 468 780 515 Z" />
<polyline points="740.50 491.25 730.50 491.25" fill="none" stroke="rgb(0,0,0)" stroke-width="2" />
<polyline points="725.50 491.25 715.50 491.25" fill="none" stroke="rgb(0,0,0)" stroke-width="2" />
<polyline points="710.50 491.25 700.50 491.25" fill="none" stroke="rgb(0,0,0)" stroke-width="2" />
<circle cx="756.47" cy="491.25" r="15.04" fill="none" stroke="rgb(0,0,0)" stroke-width="2" />
<polyline points="762.50 497.25 762.50 485.25 756.50 491.25 750.50 485.25 750.50 497.25" fill="none" stroke="rgb(0,0,0)" stroke-width="2" />
<polyline points="496.33 289.58 586.33 289.58 586.33 269.58" fill="none" stroke="rgb(0,0,255)" stroke-width="2" />
<polyline points="575.50 267.92 586.33 267.91 586.33 269.58" fill="none" stroke="rgb(0,0,255)" stroke-width="2" />
<polyline points="496.33 299.58 596.33 299.58 596.33 267.91 620.50 267.92" fill="none" stroke="rgb(0,0,255)" stroke-width="2" />
<polyline points="496.33 309.58 606.33 309.58 606.33 207.91 700.50 207.91" fill="none" stroke="rgb(0,0,255)" stroke-width="2" />
<polyline points="496.33 419.58 586.33 419.58 586.33 401.25 575.50 401.25" fill="none" stroke="rgb(0,0,255)" stroke-width="2" />
<polyline points="496.33 439.58 606.33 439.58 606.33 491.25 700.50 491.25" fill="none" stroke="rgb(0,0,255)" stroke-width="2" />
<polyline points="660.50 347.92 650.50 347.92" fill="none" stroke="rgb(0,0,0)" stroke-width="2" />
<polyline points="645.50 347.92 635.50 347.92" fill="none" stroke="rgb(0,0,0)" stroke-width="2" />
<polyline points="630.50 347.92 620.50 347.92" fill="none" stroke="rgb(0,0,0)" stroke-width="2" />
<circle cx="676.46" cy="347.92" r="15.04" fill="none" stroke="rgb(0,0,0)" stroke-width="2" />
<polyline points="682.50 353.92 682.50 341.92 676.50 347.92 670.50 341.92 670.50 353.92" fill="none" stroke="rgb(0,0,0)" stroke-width="2" />
<path fill="none" stroke="rgb(0,0,0)" stroke-width="3" d=" M 700 325 L 621 325 621 371 700 371 700 325 Z" />
<polyline points="496.33 364.58 596.33 364.58 596.33 347.91 620.50 347.92" fill="none" stroke="rgb(0,0,255)" stroke-width="2" />
<polyline points="760.50 347.92 750.50 347.92" fill="none" stroke="rgb(0,0,0)" stroke-width="2" />
<polyline points="745.50 347.92 735.50 347.92" fill="none" stroke="rgb(0,0,0)" stroke-width="2" />
<polyline points="730.50 347.92 720.50 347.92" fill="none" stroke="rgb(0,0,0)" stroke-width="2" />
<circle cx="776.46" cy="347.92" r="15.04" fill="none" stroke="rgb(0,0,0)" stroke-width="2" />
<polyline points="782.50 353.92 782.50 341.92 776.50 347.92 770.50 341.92 770.50 353.92" fill="none" stroke="rgb(0,0,0)" stroke-width="2" />
<path fill="none" stroke="rgb(0,0,0)" stroke-width="3" d=" M 800 325 L 721 325 721 371 800 371 800 325 Z" />
<polyline points="720.50 347.92 711.33 347.91 711.33 379.58 606.33 379.58 606.33 374.58 496.33 374.58" fill="none" stroke="rgb(0,0,255)" stroke-width="2" />
<polyline points="496.33 354.58 586.33 354.58 586.33 334.58 575.50 334.58" fill="none" stroke="rgb(0,0,255)" stroke-width="2" />
<polyline points="620.50 431.25 496.33 431.25" fill="none" stroke="rgb(0,0,255)" stroke-width="2" />
<path fill="none" stroke="rgb(0,0,0)" stroke-width="3" d=" M 396 203 L 476 203 476 250 396 250 396 203 Z" />
<polyline points="436.00 226.25 446.00 226.25" fill="none" stroke="rgb(0,0,0)" stroke-width="2" />
<polyline points="451.00 226.25 461.00 226.25" fill="none" stroke="rgb(0,0,0)" stroke-width="2" />
<polyline points="466.00 226.25 476.00 226.25" fill="none" stroke="rgb(0,0,0)" stroke-width="2" />
<circle cx="420.04" cy="226.25" r="15.04" fill="none" stroke="rgb(0,0,0)" stroke-width="2" />
<polyline points="414.00 232.25 414.00 220.25 420.00 226.25 426.00 220.25 426.00 232.25" fill="none" stroke="rgb(0,0,0)" stroke-width="2" />
<path fill="none" stroke="rgb(0,0,0)" stroke-width="3" d=" M 396 128 L 476 128 476 175 396 175 396 128 Z" />
<polyline points="436.00 151.25 446.00 151.25" fill="none" stroke="rgb(0,0,0)" stroke-width="2" />
<polyline points="451.00 151.25 461.00 151.25" fill="none" stroke="rgb(0,0,0)" stroke-width="2" />
<polyline points="466.00 151.25 476.00 151.25" fill="none" stroke="rgb(0,0,0)" stroke-width="2" />
<circle cx="420.04" cy="151.25" r="15.04" fill="none" stroke="rgb(0,0,0)" stroke-width="2" />
<polyline points="414.00 157.25 414.00 145.25 420.00 151.25 426.00 145.25 426.00 157.25" fill="none" stroke="rgb(0,0,0)" stroke-width="2" />
<polyline points="480.83 249.58 480.83 226.25 476.00 226.25" fill="none" stroke="rgb(128,0,64)" stroke-width="2" />
<polyline points="485.83 249.58 485.83 151.25 476.00 151.25" fill="none" stroke="rgb(128,0,64)" stroke-width="2" />
<polyline points="490.83 249.58 490.83 114.58 435.83 114.58" fill="none" stroke="rgb(255,128,64)" stroke-width="2" />
<polyline points="495.83 249.58 495.83 119.58 375.83 119.58" fill="none" stroke="rgb(255,128,64)" stroke-width="2" />
<polyline points="375.83 119.58 375.83 109.58" fill="none" stroke="rgb(255,128,64)" stroke-width="2" />
<polyline points="435.83 114.58 435.83 109.58" fill="none" stroke="rgb(255,128,64)" stroke-width="2" />
<path fill="rgb(239,239,239)" stroke="rgb(0,0,0)" stroke-width="2" d=" M 441.90 109.96 Q 442.64 109.73 444.18 108.91 Q 445.72 108.09 447.07 106.98 Q 448.42 105.88 449.52 104.53 Q 450.63 103.18 451.45 101.64 Q 452.28 100.10 452.78 98.43 Q 453.29 96.76 453.46 95.03 Q 453.63 93.29 453.46 91.56 Q 453.29 89.82 452.78 88.15 Q 452.28 86.48 451.45 84.94 Q 450.63 83.40 449.52 82.06 Q 448.42 80.71 447.07 79.60 Q 445.72 78.49 444.18 77.67 Q 442.64 76.85 440.97 76.34 Q 439.31 75.84 437.57 75.67 Q 435.83 75.49 434.10 75.67 Q 432.36 75.84 430.69 76.34 Q 429.02 76.85 427.48 77.67 Q 425.95 78.49 424.60 79.60 Q 423.25 80.71 422.14 82.06 Q 421.04 83.40 420.21 84.94 Q 419.39 86.48 418.88 88.15 Q 418.38 89.82 418.21 91.56 Q 418.04 93.29 418.21 95.03 Q 418.38 96.76 418.88 98.43 Q 419.39 100.10 420.21 101.64 Q 421.04 103.18 422.14 104.53 Q 423.25 105.88 424.60 106.98 Q 425.95 108.09 427.48 108.91 Q 429.02 109.73 429.39 109.85 Z" />
<circle cx="435.83" cy="93.33" r="14.67" fill="rgb(249,249,249)" stroke="rgb(0,0,0)" stroke-width="1" />
<path fill="none" stroke="rgb(238,238,238)" stroke-width="2" d=" M 433.55 84.77 Q 432.45 85.11 431.68 85.52 Q 430.91 85.93 430.24 86.48 Q 429.57 87.03 429.02 87.70 Q 428.47 88.37 428.06 89.14 Q 427.65 89.90 427.48 90.46" />
</svg>
